<svg width="5" height="9" viewBox="0 0 5 9" fill="none" xmlns="http://www.w3.org/2000/svg">
<path d="M4.17038 8.99996C4.06366 9.00028 3.9582 8.97909 3.86177 8.93793C3.76534 8.89677 3.68038 8.8367 3.61314 8.76212L0.162521 4.90534C0.0574434 4.79032 0 4.64605 0 4.49717C0 4.34828 0.0574434 4.20401 0.162521 4.08899L3.73459 0.232212C3.85586 0.100942 4.03011 0.0183912 4.21902 0.00271999C4.40793 -0.0129512 4.59602 0.0395408 4.74192 0.148648C4.88781 0.257755 4.97956 0.414541 4.99698 0.584513C5.01439 0.754485 4.95605 0.923721 4.83479 1.05499L1.64136 4.50038L4.72763 7.94577C4.81499 8.04012 4.87048 8.15502 4.88754 8.27686C4.9046 8.3987 4.88251 8.52239 4.82389 8.63329C4.76527 8.74419 4.67257 8.83766 4.55675 8.90264C4.44094 8.96762 4.30686 9.00139 4.17038 8.99996Z" fill="white"/>
</svg>
