<svg width="20" height="18" viewBox="0 0 20 18" fill="none" xmlns="http://www.w3.org/2000/svg">
<path d="M3.33333 0C3.73264 0 4.07639 0.28793 4.15278 0.685898L4.20486 1.125H18.8125C19.5174 1.125 20.0799 1.83691 19.8819 2.55445L18.0069 9.30586C17.8715 9.79102 17.434 10.125 16.9375 10.125H5.92708L6.24653 11.8125H16.9444C17.4062 11.8125 17.7778 12.1887 17.7778 12.6562C17.7778 13.1238 17.4062 13.5 16.9444 13.5H5.52431C5.15625 13.5 4.8125 13.2117 4.73611 12.8145L2.64375 1.6875H0.833333C0.373264 1.6875 0 1.30957 0 0.84375C0 0.37793 0.373264 0 0.833333 0H3.33333ZM4.44444 16.3125C4.44444 15.3809 5.19097 14.625 6.11111 14.625C7.03125 14.625 7.77778 15.3809 7.77778 16.3125C7.77778 17.2441 7.03125 18 6.11111 18C5.19097 18 4.44444 17.2441 4.44444 16.3125ZM17.7778 16.3125C17.7778 17.2441 17.0312 18 16.1111 18C15.191 18 14.4444 17.2441 14.4444 16.3125C14.4444 15.3809 15.191 14.625 16.1111 14.625C17.0312 14.625 17.7778 15.3809 17.7778 16.3125Z" fill="white"/>
</svg>
