<svg width="39" height="39" viewBox="0 0 39 39" fill="none" xmlns="http://www.w3.org/2000/svg">
<g clip-path="url(#clip0_4_978)">
<path d="M28.01 33.8248C33.8621 27.9782 33.8621 18.4989 28.01 12.6523C22.1579 6.80561 12.6698 6.80561 6.81775 12.6523C0.96567 18.4989 0.96567 27.9782 6.81775 33.8248C12.6698 39.6715 22.1579 39.6715 28.01 33.8248Z" fill="url(#paint0_linear_4_978)"/>
<path d="M17.6917 36.8239C25.9678 36.8239 32.6769 30.121 32.6769 21.8526C32.6769 13.5842 25.9678 6.88133 17.6917 6.88133C9.41564 6.88133 2.70654 13.5842 2.70654 21.8526C2.70654 30.121 9.41564 36.8239 17.6917 36.8239Z" fill="url(#paint1_linear_4_978)"/>
<path d="M29.4846 21.8526C29.4846 23.5024 29.1424 25.0735 28.5257 26.5011C26.7182 30.6926 22.5417 33.6345 17.6902 33.6345C11.1873 33.6345 5.89569 28.3479 5.89569 21.851C5.89569 20.6046 6.08969 19.4023 6.45245 18.2741C7.97289 13.52 12.4349 10.0691 17.6902 10.0691C24.1931 10.0691 29.4846 15.3558 29.4846 21.8526Z" fill="url(#paint2_linear_4_978)"/>
<path d="M29.084 22.9225C29.084 24.169 28.89 25.3713 28.5273 26.4995C26.7198 30.691 22.5433 33.633 17.6918 33.633C11.1889 33.633 5.89728 28.3463 5.89728 21.8494C5.89728 20.603 6.09128 19.4007 6.45404 18.2725C8.26154 14.081 12.438 11.139 17.2896 11.139C23.7925 11.139 29.084 16.4257 29.084 22.9225Z" fill="url(#paint3_linear_4_978)"/>
<path d="M25.5274 20.737C25.4691 21.5359 25.3713 22.4924 25.2057 23.545C24.8855 25.5824 24.5968 26.5373 24.0622 28.1241C23.9455 28.4676 23.6032 28.6646 23.1978 28.7261C21.7247 28.9451 19.6996 29.0381 17.6649 29.0302C15.6303 29.0381 13.6068 28.9435 12.132 28.7261C11.7267 28.6662 11.3844 28.4676 11.2677 28.1241C11.0453 27.4639 10.8655 26.9124 10.7094 26.3483C10.4886 25.5556 10.3135 24.7347 10.1258 23.5466C9.81353 21.5642 9.74256 19.9192 9.72836 19.0367C9.72521 18.8019 9.98545 18.6633 10.181 18.7909C11.1621 19.4354 13.2235 21.6367 14.1052 22.5979C14.3055 22.817 14.6635 22.7697 14.7991 22.505C15.3717 21.3925 16.6855 18.887 17.4142 17.8407C17.5482 17.6485 17.7706 17.6438 17.9094 17.8329C18.6444 18.8256 19.9724 21.3941 20.5418 22.516C20.6743 22.7776 21.026 22.8312 21.2295 22.62C22.108 21.7108 24.1489 19.6198 25.1315 18.7988C25.3192 18.6428 25.6047 18.7783 25.6015 19.0226C25.5952 19.437 25.5763 20.0247 25.5258 20.7386L25.5274 20.737Z" fill="url(#paint4_linear_4_978)"/>
<path d="M25.7419 18.0519C25.7356 18.4663 25.7167 19.0525 25.6662 19.7663C25.6189 20.4281 25.5432 21.1987 25.4249 22.0417C25.4012 22.2166 25.3744 22.3947 25.346 22.5759C25.0258 24.6133 24.7372 25.5682 24.2025 27.155C24.0858 27.4985 23.7436 27.6955 23.3382 27.757C21.8651 27.976 19.8399 28.069 17.8069 28.0627C15.7707 28.069 13.7487 27.976 12.274 27.757C11.8702 27.6955 11.528 27.4985 11.4112 27.155C11.1873 26.4932 11.0091 25.9433 10.8513 25.3776C10.7078 24.8607 10.5816 24.3297 10.4618 23.6931C10.3971 23.3559 10.3324 22.9872 10.2678 22.5759C9.95547 20.5936 9.88292 18.9485 9.8703 18.0645C9.86557 17.8297 10.1274 17.6895 10.323 17.8187C11.304 18.4632 13.3639 20.6645 14.2471 21.6257C14.4474 21.8447 14.8054 21.7975 14.9411 21.5343C15.5136 20.4218 16.8274 17.9148 17.5561 16.8701C17.6886 16.6794 17.9126 16.6731 18.0514 16.8622C18.7863 17.8549 20.1144 20.4234 20.6837 21.5453C20.8162 21.8069 21.168 21.8605 21.3714 21.6493C22.2499 20.7401 24.2909 18.6491 25.275 17.8297C25.4627 17.6737 25.7466 17.8092 25.7435 18.055L25.7419 18.0519Z" fill="url(#paint5_linear_4_978)"/>
<path d="M25.4248 22.0417C25.4012 22.2166 25.3744 22.3947 25.346 22.5759C25.0258 24.6133 24.7372 25.5682 24.2025 27.155C24.0858 27.4986 23.7435 27.6955 23.3382 27.757C21.8651 27.976 19.8399 28.069 17.8069 28.0627C15.7707 28.069 13.7487 27.976 12.274 27.757C11.8702 27.6955 11.5279 27.4986 11.4112 27.155C11.1873 26.4932 11.009 25.9433 10.8513 25.3776C10.7078 24.8607 10.5816 24.3297 10.4617 23.6931C14.255 24.169 18.1349 23.9752 21.8572 23.1038C23.0653 22.8201 24.2593 22.464 25.4264 22.0417H25.4248Z" fill="url(#paint6_linear_4_978)"/>
<path opacity="0.3" d="M26.5068 10.4945C27.5777 11.3738 28.1187 12.4831 27.7165 12.9716C27.3144 13.4601 26.1204 13.145 25.0495 12.2657C23.9785 11.3864 23.4375 10.2771 23.8397 9.7886C24.2419 9.29854 25.4359 9.61527 26.5068 10.4945Z" fill="white"/>
<g opacity="0.6">
<path opacity="0.3" d="M9.04538 31.0456C9.73936 31.616 10.0911 32.3345 9.83084 32.6528C9.5706 32.9696 8.79618 32.7647 8.10062 32.1959C7.40665 31.6254 7.05492 30.9069 7.31517 30.5886C7.57541 30.2703 8.34982 30.4767 9.04538 31.0456V31.0456Z" fill="white"/>
</g>
<path opacity="0.3" d="M19.2012 20.4391C19.4787 21.0411 19.4787 21.632 19.2027 21.7581C18.9267 21.8841 18.4788 21.4996 18.2028 20.8977C17.9252 20.2958 17.9252 19.7048 18.2012 19.5788C18.4772 19.4527 18.9251 19.8372 19.2012 20.4391Z" fill="white"/>
</g>
<defs>
<linearGradient id="paint0_linear_4_978" x1="22.5749" y1="6.32055" x2="12.2066" y2="40.3733" gradientUnits="userSpaceOnUse">
<stop stop-color="#FFEF00"/>
<stop offset="0.46" stop-color="#F1B400"/>
<stop offset="0.82" stop-color="#E98F00"/>
<stop offset="1" stop-color="#E68100"/>
</linearGradient>
<linearGradient id="paint1_linear_4_978" x1="23.1205" y1="4.0497" x2="12.7538" y2="38.1025" gradientUnits="userSpaceOnUse">
<stop stop-color="#FFEF00"/>
<stop offset="1" stop-color="#FFB700"/>
</linearGradient>
<linearGradient id="paint2_linear_4_978" x1="23.9344" y1="-0.311998" x2="12.3381" y2="40.9328" gradientUnits="userSpaceOnUse">
<stop stop-color="#FF8F00"/>
<stop offset="0.21" stop-color="#FF9D00"/>
<stop offset="0.6" stop-color="#FFC200"/>
<stop offset="1" stop-color="#FFEF00"/>
</linearGradient>
<linearGradient id="paint3_linear_4_978" x1="23.4313" y1="1.29527" x2="12.3971" y2="40.5464" gradientUnits="userSpaceOnUse">
<stop stop-color="#FF8F00"/>
<stop offset="0.31" stop-color="#FFB800"/>
<stop offset="0.59" stop-color="#FFD600"/>
<stop offset="0.83" stop-color="#FFE800"/>
<stop offset="1" stop-color="#FFEF00"/>
</linearGradient>
<linearGradient id="paint4_linear_4_978" x1="19.3684" y1="14.779" x2="14.9676" y2="30.6459" gradientUnits="userSpaceOnUse">
<stop stop-color="#FFEF00"/>
<stop offset="0.13" stop-color="#FFD900"/>
<stop offset="0.37" stop-color="#FFB900"/>
<stop offset="0.6" stop-color="#FFA100"/>
<stop offset="0.82" stop-color="#FF9300"/>
<stop offset="1" stop-color="#FF8F00"/>
</linearGradient>
<linearGradient id="paint5_linear_4_978" x1="21.2673" y1="8.96606" x2="12.6703" y2="36.7402" gradientUnits="userSpaceOnUse">
<stop offset="0.27" stop-color="#FFFCD1"/>
<stop offset="0.79" stop-color="#FFD770"/>
</linearGradient>
<linearGradient id="paint6_linear_4_978" x1="22.2625" y1="9.36001" x2="14.9157" y2="33.3926" gradientUnits="userSpaceOnUse">
<stop offset="0.17" stop-color="#FFFCD1"/>
<stop offset="0.79" stop-color="#FFD770"/>
</linearGradient>
<clipPath id="clip0_4_978">
<rect width="39" height="39" fill="white"/>
</clipPath>
</defs>
</svg>
