<svg width="97" height="97" viewBox="0 0 97 97" fill="none" xmlns="http://www.w3.org/2000/svg">
<circle cx="48" cy="48" r="8" fill="#E8003F"/>
<path d="M68.2569 27.7989C68.8004 27.2553 68.8025 26.3714 68.2344 25.8537C64.7152 22.6468 60.4778 20.3188 55.8693 19.0708C50.8124 17.7014 45.485 17.6802 40.4173 19.0093C35.3496 20.3384 30.7183 22.9714 26.9843 26.6463C23.5815 29.9954 21.032 34.1033 19.5396 38.6245C19.2987 39.3545 19.7344 40.1236 20.4747 40.3304C21.215 40.5372 21.9794 40.1033 22.2238 39.3745C23.5831 35.3211 25.8806 31.6383 28.9369 28.6303C32.3245 25.2963 36.526 22.9076 41.1235 21.7019C45.7209 20.4961 50.554 20.5154 55.1417 21.7577C59.2809 22.8786 63.0901 24.9599 66.2637 27.8244C66.8344 28.3395 67.7133 28.3424 68.2569 27.7989Z" fill="#C30035"/>
<path d="M31.6184 71.7841C31.2645 72.2964 31.3919 73.0005 31.9171 73.3349C36.0098 75.9404 40.6786 77.5175 45.5244 77.9232C50.7453 78.3604 55.9895 77.4228 60.7354 75.2036C65.4812 72.9844 69.5632 69.561 72.575 65.2742C75.3705 61.2952 77.1536 56.7011 77.7782 51.8899C77.8583 51.2724 77.3997 50.7233 76.7796 50.6664C76.1596 50.6095 75.6132 51.0665 75.5312 51.6837C74.9438 56.1028 73.2992 60.3212 70.7301 63.978C67.9446 67.9426 64.1695 71.1087 59.7803 73.1611C55.3911 75.2135 50.541 76.0807 45.7126 75.6763C41.2592 75.3034 36.9674 73.8608 33.1995 71.4783C32.6733 71.1455 31.9723 71.2718 31.6184 71.7841Z" fill="#C30035"/>
<path d="M26.6796 78.934C26.161 79.6848 26.3475 80.7171 27.1195 81.2036C32.433 84.5523 38.4807 86.5803 44.7555 87.1057C51.5799 87.6772 58.435 86.4515 64.6385 83.5506C70.8421 80.6498 76.1778 76.175 80.1148 70.5714C83.7346 65.4191 86.0559 59.4778 86.8927 53.2531C87.0143 52.3488 86.3417 51.5438 85.4331 51.4605C84.5244 51.3771 83.7241 52.0469 83.599 52.9507C82.8171 58.6008 80.6991 63.9918 77.411 68.6719C73.8058 73.8032 68.9197 77.901 63.2389 80.5574C57.5581 83.2138 51.2806 84.3362 45.0313 83.8129C39.3315 83.3356 33.8364 81.5045 28.9992 78.4821C28.2254 77.9986 27.1982 78.1833 26.6796 78.934Z" fill="#C30035"/>
<path d="M66.8319 15.4583C67.2755 14.6899 67.0136 13.7042 66.2277 13.2924C60.6506 10.3702 54.4441 8.83018 48.132 8.81341C41.2838 8.79522 34.5502 10.5708 28.6013 13.9633C22.6524 17.3559 17.6956 22.2473 14.2244 28.1506C11.0249 33.5916 9.19013 39.7176 8.86545 46.0055C8.8197 46.8916 9.53471 47.6189 10.4219 47.6283C11.3091 47.6377 12.0323 46.9257 12.0813 46.0398C12.398 40.3131 14.079 34.7366 16.9941 29.7792C20.1809 24.3596 24.7315 19.869 30.193 16.7544C35.6545 13.6398 41.8364 12.0098 48.1235 12.0265C53.8744 12.0417 59.5298 13.4343 64.6198 16.0776C65.4072 16.4865 66.3883 16.2267 66.8319 15.4583Z" fill="#C30035"/>
<path d="M34.9812 61.0745C34.5379 61.5178 34.536 62.239 35.0026 62.6577C37.4422 64.8469 40.3648 66.4383 43.5388 67.2978C47.0786 68.2564 50.8078 68.2713 54.3552 67.3409C57.9026 66.4106 61.1445 64.5675 63.7583 61.995C66.1019 59.6884 67.8673 56.8675 68.9186 53.7628C69.1196 53.169 68.7639 52.5416 68.1601 52.3729C67.5563 52.2042 66.9335 52.5584 66.7285 53.1508C65.7865 55.8741 64.2269 58.3485 62.1658 60.377C59.8346 62.6713 56.9432 64.3152 53.7793 65.145C50.6154 65.9747 47.2894 65.9615 44.1322 65.1065C41.3409 64.3506 38.7677 62.9602 36.6104 61.0497C36.1411 60.6341 35.4245 60.6312 34.9812 61.0745Z" fill="#C30035"/>
<path d="M58.9602 29.8244C59.2736 29.2815 59.0889 28.5843 58.5298 28.3006C55.6067 26.8174 52.3719 26.0367 49.0835 26.028C45.4162 26.0182 41.8102 26.9691 38.6245 28.7858C35.4388 30.6026 32.7844 33.222 30.9255 36.3833C29.2586 39.2179 28.2835 42.3996 28.0717 45.6706C28.0311 46.2962 28.5371 46.8102 29.164 46.8168C29.7909 46.8235 30.3009 46.3202 30.3455 45.6949C30.5505 42.8206 31.4166 40.0268 32.8824 37.5341C34.5404 34.7145 36.9078 32.3783 39.7492 30.7579C42.5905 29.1375 45.8066 28.2895 49.0775 28.2982C51.9693 28.3059 54.8147 28.983 57.393 30.27C57.9539 30.55 58.6467 30.3673 58.9602 29.8244Z" fill="#C30035"/>
<path d="M63.5 3L47.5 39.5L53.5 45L66 35.5L73 6L63.5 3Z" fill="#101010" stroke="#E8003F" stroke-width="3" stroke-linejoin="round"/>
<path d="M31.5 91L47.5 54.5L41.5 49L29 58.5L22 88L31.5 91Z" fill="#101010" stroke="#E8003F" stroke-width="3" stroke-linejoin="round"/>
</svg>
