<svg width="120" height="66" viewBox="0 0 120 66" fill="none" xmlns="http://www.w3.org/2000/svg">
<path d="M41.7837 6.11824C47.067 6.51692 113.533 24.175 118.645 27.1249C118.602 26.7183 118.506 26.2082 118.506 26.2082C118.153 25.7615 117.27 25.1513 116.546 24.697C114.808 23.6303 45.0271 2.76475 39.5578 2.3469C35.414 2.03167 26.5359 12.8886 29.4717 18.0849C30.7701 13.7512 38.4204 5.86008 41.7775 6.11842L41.7837 6.11824Z" fill="#DB7301"/>
<path d="M82.1319 54.41C82.505 56.3517 81.232 58.2189 79.2903 58.5919C77.3484 58.9588 75.4752 57.6922 75.1083 55.7503C74.7414 53.8084 76.0082 51.9413 77.95 51.5683C79.8917 51.1952 81.7589 52.4682 82.1319 54.41Z" fill="#273141"/>
<path d="M103.468 24.8706L101.173 44.2882L102.253 44.6392L104.771 24.6216C104.771 24.6216 103.616 23.6179 103.468 24.8706Z" fill="#58094C"/>
<path d="M87.6456 39.3212C87.6456 39.3212 107.925 42.1279 109.033 44.0539C110.141 45.9799 102.019 49.4541 98.5648 49.6621C95.8875 49.8223 60.5798 46.2276 60.5798 46.2276L87.6455 39.315L87.6456 39.3212Z" fill="#DB7301"/>
<path d="M87.2505 39.747C87.2505 39.747 107.53 42.5537 108.638 44.4797C109.746 46.4057 101.624 49.8799 98.1696 50.0879C95.4923 50.2481 60.1846 46.6535 60.1846 46.6535L87.2503 39.7408L87.2505 39.747Z" fill="#8C2C1C"/>
<path d="M78.463 56.1323L75.4608 46.4329L76.753 46.0359L78.7094 52.3737L83.787 41.3149L85.0149 41.8716L78.463 56.1323Z" fill="#58094C"/>
<path d="M11.367 50.2903C11.0818 48.8095 3.61099 37.6365 5.48316 36.3818C7.35533 35.1271 15.895 39.6557 18.7642 41.1646C21.6395 42.6733 22.1357 44.599 22.1357 44.599L11.3606 50.2843L11.367 50.2903Z" fill="#FEA900"/>
<path d="M53.2457 29.2786C53.2457 29.2786 59.2878 29.84 62.4517 29.0041C65.6156 28.1682 65.2037 28.4462 66.6386 27.8658C68.0738 27.2915 73.5278 25.7447 73.5278 25.7447L72.3249 32.6587L58.0138 34.1607L53.642 32.6224L53.2397 29.2849L53.2457 29.2786Z" fill="#5F243B"/>
<path d="M30.5223 18.9126C30.5223 18.9126 67.3858 27.0154 70.0638 26.88C72.7416 26.7383 107.24 33.2555 112.207 32.9961C117.175 32.7368 119.147 28.1976 118.533 26.2631C117.912 24.3225 46.5338 5.42044 41.0647 5.00876C36.5307 4.6619 25.4195 16.4877 30.5286 18.9186L30.5223 18.9126Z" fill="#BA381B"/>
<path d="M69.7729 26.8639C72.4507 26.7223 106.942 33.2025 111.919 33.0542C113.617 33.0036 114.814 32.5229 115.77 31.8641C105.986 26.8411 88.0096 18.5707 74.3073 17.4836C62.2651 16.5263 50.0211 19.1656 42.2097 21.444C53.2308 23.8037 68.1069 26.9507 69.7667 26.8641L69.7729 26.8639Z" fill="#AD2F1A"/>
<path d="M11.3618 48.6652C11.3618 48.6652 7.43197 52.4161 26.6859 53.7826C45.9399 55.149 95.8026 42.205 95.8026 42.205L93.3066 19.8403L74.1068 23.6077C74.1068 23.6077 68.7949 31.1634 60.9044 31.825C53.0138 32.4867 53.2457 29.2786 53.2457 29.2786C53.2457 29.2786 14.3058 37.5525 11.3618 48.6652Z" fill="#FEA900"/>
<path d="M95.8087 42.2048L94.409 29.6643C91.9085 31.6114 87.8175 34.1002 81.3607 36.4186C69.8779 40.543 26.6304 43.0065 15.203 43.6006C13.2176 45.2047 11.8343 46.896 11.3679 48.665C11.3679 48.665 7.43812 52.4159 26.6921 53.7824C45.9461 55.1489 95.8087 42.2048 95.8087 42.2048Z" fill="#FF5725"/>
<path d="M25.5704 51.1894C17.3961 50.6235 13.3131 49.6514 11.3318 48.697C10.9851 49.0905 8.55883 52.4876 26.6919 53.7762C45.9459 55.1427 95.8085 42.1987 95.8085 42.1987L95.5311 39.735C89.3971 41.2712 43.9003 52.4474 25.5702 51.1832L25.5704 51.1894Z" fill="#D34220"/>
<path d="M78.3326 54.6592L68.9522 56.1316L69.1156 57.4677L78.4896 55.7792L78.3326 54.6592Z" fill="#58094C"/>
<path d="M100.128 30.3837C100.831 36.555 98.9248 41.84 95.8639 42.1908C92.803 42.5416 89.7514 37.8185 89.0483 31.6472C88.3453 25.4759 90.2518 20.1909 93.3127 19.8401C96.3736 19.4893 99.4252 24.2125 100.128 30.3837Z" fill="#FFDD57"/>
<path d="M99.214 30.6026C99.7332 35.1664 98.4463 39.0548 96.34 39.2968C94.2275 39.539 92.0961 36.0368 91.5769 31.473C91.0577 26.9091 92.3446 23.0207 94.4509 22.7787C96.5634 22.5365 98.6948 26.0388 99.214 30.6026Z" fill="#842653"/>
<path d="M54.2592 16.0111L50.5152 36.5657L51.841 36.8846L55.8027 16.169C55.9499 15.5095 54.48 15.127 54.2592 16.0111Z" fill="#58094C"/>
<path d="M44.3028 13.5022L40.5085 34.2376L41.8344 34.5565L45.796 13.8409C45.9358 12.7243 44.4115 12.7945 44.2964 13.4963L44.3028 13.5022Z" fill="#58094C"/>
<path d="M95.9733 30.52C95.9733 30.52 86.9291 42.6488 88.2453 45.1309C89.6534 47.7957 92.4807 46.2406 93.3677 42.8276C94.0883 40.0499 96.3357 30.8614 96.3357 30.8614L95.9733 30.52Z" fill="#FFFD73"/>
<path d="M96.3856 29.6301C96.3856 29.6301 98.4405 18.1299 100.889 17.1361C103.338 16.1423 104.795 17.9714 104.131 19.7339C103.466 21.4964 96.9803 30.0944 96.9803 30.0944L96.3917 29.6299L96.3856 29.6301Z" fill="#FFFD73"/>
<path d="M22.142 44.605C22.142 44.605 11.1419 43.7773 3.43658 44.8475C-4.26853 45.9238 11.058 49.6692 11.058 49.6692L22.6834 47.4254L22.1418 44.5988L22.142 44.605Z" fill="#D23C2B"/>
<path d="M3.43663 44.8475C1.19034 45.1616 0.915239 45.6766 1.56942 46.2689C2.4461 46.0326 4.02362 45.8805 7.05477 45.9817C14.8552 46.2374 22.6836 47.4316 22.6836 47.4316L22.1421 44.605C22.1421 44.605 11.1419 43.7773 3.43663 44.8475Z" fill="#FF862E"/>
<path d="M29.1654 39.9399C29.1654 39.9399 38.9801 40.599 44.5898 40.957C49.3573 41.2599 74.9021 39.9236 74.9021 39.9236L74.9695 38.0367C74.9695 38.0367 46.6865 29.8202 40.801 29.5384C37.0136 29.3608 31.5517 31.8844 29.3007 34.9425C28.0534 36.6359 28.3656 39.0244 29.1594 39.9463L29.1654 39.9399Z" fill="#DB7301"/>
<path d="M29.1654 39.9399C29.1654 39.9399 39.467 43.248 45.0705 43.6062C50.6799 43.9581 74.896 39.9238 74.896 39.9238C74.896 39.9238 46.7796 32.9444 40.8943 32.6688C35.0091 32.3931 26.9318 37.3615 29.1654 39.9399Z" fill="#8C2C1C"/>
<g style="mix-blend-mode:screen" opacity="0.42">
<path d="M86.0392 28.3442C86.6854 30.3272 84.4429 32.8413 81.0277 33.9566C77.6126 35.0719 74.3163 34.3668 73.6701 32.3838C73.0239 30.4008 75.2664 27.8867 78.6815 26.7714C82.0966 25.6561 85.393 26.3612 86.0392 28.3442Z" fill="#FFA34E"/>
</g>
<path d="M103.711 33.0208L104.77 24.6155C104.754 24.0721 103.723 23.8804 103.535 24.4113L102.55 32.6537C102.945 32.611 103.388 32.7461 103.717 33.0268L103.711 33.0208Z" fill="#58094C"/>
<g style="mix-blend-mode:screen" opacity="0.42">
<path d="M26.1253 38.708C26.1253 38.708 18.3827 41.0153 17.8208 42.6883C17.2588 44.3612 25.8852 42.6765 27.0175 41.4809C28.1437 40.2855 26.1253 38.708 26.1253 38.708Z" fill="#FFA34E"/>
</g>
<path d="M73.1021 46.0829C72.7303 46.8789 72.3238 47.7562 71.8713 48.7461C70.6068 51.5215 69.3738 54.3144 68.6274 56.0176L64.2555 47.8422C64.0404 47.6756 62.9004 47.9939 62.9458 48.2706C66.2705 54.4873 67.9622 57.5453 67.9043 57.6768L68.5241 57.9426C71.2858 52.3231 73.2172 48.4958 74.5611 45.8973C74.5558 45.7183 73.2131 45.8695 73.1021 46.0829Z" fill="#58094C"/>
<path d="M73.117 57.9849C73.6151 60.5965 71.8983 63.1258 69.2867 63.6239C66.6689 64.1222 64.1458 62.4053 63.6477 59.7937C63.1496 57.1821 64.8664 54.6528 67.478 54.1547C70.0896 53.6566 72.6189 55.3733 73.117 57.9849Z" fill="#273141"/>
<path d="M71.0093 58.3877C71.2874 59.8378 70.334 61.232 68.8839 61.5101C67.4337 61.7881 66.0395 60.8347 65.7615 59.3846C65.4834 57.9344 66.4366 56.5341 67.8869 56.2622C69.3371 55.9841 70.7313 56.9375 71.0093 58.3877Z" fill="#53688A"/>
<path d="M80.1616 55.0681C80.1894 56.0005 79.3969 56.778 78.3966 56.8079C77.3964 56.8377 76.5589 56.1087 76.5311 55.1764C76.5033 54.244 77.2959 53.4665 78.2961 53.4367C79.2964 53.4068 80.1338 54.1358 80.1616 55.0681Z" fill="#58094C"/>
<path d="M97.8075 31.1018C97.6998 32.2545 96.9595 33.1294 96.1478 33.0547C95.336 32.98 94.7624 31.9836 94.8702 30.8309C94.978 29.6783 95.7182 28.8034 96.53 28.8781C97.3418 28.9527 97.9153 29.9491 97.8075 31.1018Z" fill="#FF4D25"/>
<path d="M96.2816 33.1928C96.2322 33.1943 96.1829 33.1958 96.1395 33.1909C95.6994 33.1484 95.3143 32.8756 95.0533 32.4137C94.7991 31.9702 94.6896 31.4049 94.74 30.8163C94.7904 30.2277 95.0032 29.6961 95.3376 29.3029C95.6777 28.8973 96.1106 28.699 96.5506 28.7415C96.9845 28.7842 97.3758 29.0568 97.6367 29.5187C97.891 29.9622 98.0005 30.5275 97.9501 31.1161C97.8997 31.7047 97.6869 32.2363 97.3525 32.6294C97.0481 32.9908 96.677 33.1872 96.288 33.1988L96.2816 33.1928ZM96.4102 29.0052C96.1015 29.0144 95.7973 29.178 95.5405 29.4761C95.2419 29.8249 95.0523 30.3064 95.0064 30.8392C94.9605 31.3721 95.056 31.8822 95.2841 32.2771C95.5056 32.6598 95.8152 32.8854 96.1622 32.9183C96.5093 32.9512 96.8564 32.7802 97.1432 32.4503C97.4418 32.1015 97.6314 31.62 97.6773 31.0871C97.7232 30.5543 97.6277 30.0442 97.3996 29.6493C97.1781 29.2666 96.8686 29.041 96.5215 29.0081C96.4845 29.0092 96.4472 29.0041 96.4102 29.0052Z" fill="#CE2409"/>
</svg>
