<svg width="114" height="36" viewBox="0 0 114 36" fill="none" xmlns="http://www.w3.org/2000/svg">
<path d="M24.1748 2.89685C24.1748 2.89685 27.7058 1.83557 27.9824 1.27253L23.8771 2.59068L24.1748 2.89685Z" fill="url(#paint0_linear_4_1308)"/>
<path d="M22.673 1.01533C22.673 1.01533 27.4501 0.313954 28.0831 0.924193C28.7175 1.53446 23.9664 2.58963 23.9664 2.58963L22.6716 1.01387L22.673 1.01533Z" fill="url(#paint1_linear_4_1308)"/>
<path d="M112.678 18.2248C112.685 18.6629 112.546 19.121 112.173 19.5443C111.09 20.7702 109.905 21.8116 108.637 22.6991C108.637 22.6991 108.625 22.7075 108.601 22.7243C108.59 22.7327 108.574 22.7424 108.556 22.7549C105.243 25.0571 101.372 26.3369 97.3036 27.1963C93.6448 27.5283 90.0794 27.8005 86.5971 28.0199L86.5957 28.0199C86.2408 28.0428 85.8889 28.0644 85.5355 28.0845C85.5326 28.0859 85.5311 28.0858 85.5297 28.0858C83.6964 28.1965 81.8864 28.2918 80.0968 28.3746L80.094 28.3746C77.4984 28.4927 74.9465 28.5831 72.4356 28.6469C58.0043 29.01 44.856 28.4787 31.9971 27.4622C31.9582 27.4599 31.9122 27.4561 31.859 27.4508C31.7684 27.4432 31.6606 27.4324 31.5384 27.4198C31.1516 27.3832 30.7591 27.3422 30.3554 27.2895C29.7605 27.2114 29.1488 27.1142 28.5087 26.9935C28.5058 26.9935 28.5015 26.9934 28.4972 26.9933C27.2314 26.7536 25.8579 26.4227 24.3154 25.9735C23.8457 25.8362 23.3589 25.687 22.8565 25.526L22.8536 25.5259C20.5076 24.7732 17.7823 23.7586 14.4995 22.3909C14.498 22.3908 14.4966 22.3894 14.4952 22.3894C14.4923 22.3879 14.4909 22.3878 14.4909 22.3878C13.8569 22.0389 13.8458 20.5984 14.457 20.371L14.4584 20.371C14.9695 20.2435 15.4792 20.116 15.9861 19.9885C17.5253 19.6062 19.0513 19.2322 20.5643 18.8652C46.006 12.716 67.863 8.92669 89.5673 7.0513C99.1793 8.54615 105.21 10.972 111.567 16.2995L102.811 18.0631C104.983 18.0369 107.052 17.8621 108.971 17.5219C110.075 17.3275 111.129 17.079 112.124 16.7732L112.125 16.7732C112.125 16.7732 112.131 16.7791 112.138 16.7907C112.146 16.8024 112.159 16.8199 112.174 16.8417C112.184 16.8548 112.192 16.8679 112.201 16.881C112.46 17.2353 112.658 17.6974 112.674 18.1874C112.675 18.2003 112.678 18.2119 112.676 18.2233L112.678 18.2248Z" fill="url(#paint2_linear_4_1308)"/>
<path d="M112.125 16.7761C112.125 16.7761 99.1723 19.2471 93.4967 17.0898C89.0363 15.3938 87.8716 9.96211 74.3636 10.1889C69.7966 10.2656 61.4699 11.4549 52.4474 12.9948C50.7212 13.29 48.9674 13.5976 47.2135 13.9138C31.5511 16.7247 15.5725 20.1352 14.5119 20.362C15.4937 20.1163 29.2087 16.7187 45.1635 13.4155C49.8249 12.4504 54.6778 11.4921 59.4611 10.6271C59.4857 10.6233 59.5103 10.6181 59.5334 10.6142C59.5754 10.605 59.6201 10.5988 59.6621 10.591C59.8081 10.5638 59.9368 10.5406 60.0467 10.5213C60.0756 10.5161 60.106 10.511 60.1349 10.5058C60.1494 10.5033 60.1624 10.5006 60.1754 10.498C60.2 10.4928 60.2246 10.489 60.2491 10.4852C60.3373 10.4697 60.3981 10.458 60.4241 10.4543C60.4256 10.4529 60.427 10.4529 60.427 10.4529C60.4285 10.4515 60.4299 10.4515 60.4313 10.453C60.4357 10.4516 60.4371 10.4517 60.4371 10.4517C71.1746 8.52725 81.4629 7.08484 88.3198 7.04607C88.7477 7.04327 89.1626 7.04595 89.5658 7.05558C93.4006 7.13922 97.1239 8.10231 100.408 9.40256L100.41 9.40259C106.634 11.8668 111.283 15.5484 112.124 16.7789L112.125 16.7761Z" fill="url(#paint3_linear_4_1308)"/>
<path d="M84.5608 25.9279C84.4317 26.2527 84.2037 26.5525 83.8783 26.8288L83.8754 26.8316C82.6425 27.8778 80.0103 28.594 76.0509 29.1124C76.0509 29.1124 74.981 29.2285 73.1795 29.403C73.1737 29.4044 73.1694 29.4043 73.1694 29.4043C66.9796 30.0066 52.1849 31.3029 42.4697 30.9878C40.5103 30.9236 39.8987 27.627 41.5554 26.9197C49.2137 24.3813 75.9808 21.9927 81.2726 23.048C83.0977 23.4139 85.0848 24.6002 84.5608 25.9265L84.5608 25.9279Z" fill="url(#paint4_linear_4_1308)"/>
<path d="M73.4888 27.7909C77.3954 27.7482 79.4447 27.2155 79.9333 26.0708C80.3508 25.0942 78.7865 24.2267 77.3469 23.9634C73.1744 23.1994 52.0476 25.0161 45.9974 26.8993C44.6887 27.4242 45.1344 28.0378 46.6808 28.0807C56.5842 28.3522 73.4888 27.7924 73.4888 27.7924L73.4888 27.7909Z" fill="url(#paint5_linear_4_1308)"/>
<path style="mix-blend-mode:multiply" opacity="0.53" d="M46.8565 19.5716C46.8565 19.5716 54.1796 22.5436 67.5751 22.3188C80.9707 22.0941 88.4724 22.795 89.877 25.2088C91.2816 27.6225 86.5986 28.0199 86.5986 28.0199L80.0968 28.3747L39.3497 27.9849L30.3568 27.291C30.3568 27.291 27.3476 24.7901 28.4375 21.8454C29.5288 18.9008 46.8565 19.5702 46.8565 19.5702L46.8565 19.5716Z" fill="url(#paint6_linear_4_1308)"/>
<path d="M9.78186 33.4974C9.78186 33.4974 13.7644 33.6831 17.9525 34.0367C24.6516 34.6021 81.9894 30.4522 80.006 25.8957L9.78186 33.4974Z" fill="url(#paint7_linear_4_1308)"/>
<path d="M79.5216 26.6225C76.2613 28.7548 56.5845 30.6743 40.0617 31.9398L40.0589 31.9397C27.3107 32.9186 16.4419 33.5077 16.4419 33.5077L9.78045 33.4959L48.6658 26.2485C53.3689 25.6418 62.785 24.7259 69.5357 24.382L69.5458 24.3822C71.7898 24.2669 73.7386 24.2175 75.1207 24.2642C75.7369 24.2825 76.2418 24.3229 76.6065 24.3849C77.0501 24.4585 77.4301 24.5481 77.7537 24.648C78.952 25.0155 79.3869 25.5227 79.5255 25.9319C79.6573 26.3237 79.5216 26.6225 79.5216 26.6225Z" fill="url(#paint8_linear_4_1308)"/>
<path d="M9.78186 33.4973L6.47729 29.5099L8.85954 29.4693L16.4418 33.5091L9.78186 33.4973Z" fill="url(#paint9_linear_4_1308)"/>
<path d="M34.3051 15.9018C33.5944 16.6326 17.3875 19.8662 17.3875 19.8662L11.3243 4.87312L8.83856 4.47511C8.83856 4.47511 20.35 -0.37452 22.6997 0.549177C23.0785 0.6976 23.7182 1.40275 24.5498 2.45213L24.5512 2.45216L24.5624 2.46819C26.8815 5.3945 30.6853 10.976 34.5287 14.6786C34.5287 14.6786 35.0143 15.1709 34.305 15.9032L34.3051 15.9018Z" fill="url(#paint10_linear_4_1308)"/>
<path d="M33.2689 15.9195C33.0128 16.1828 30.8024 16.7698 28.0766 17.4123C23.5919 18.4715 17.7124 19.6832 16.8762 19.8558C16.843 19.8623 16.8169 19.8675 16.801 19.8715L16.7749 19.8767L10.8914 5.33246L10.7103 4.88362L8.22461 4.48561C8.22461 4.48561 19.7375 -0.363987 22.0873 0.558275C23.5208 1.12016 28.0106 9.38656 33.2444 14.4299C33.2444 14.4299 33.9781 15.1872 33.2703 15.9181L33.2689 15.9195Z" fill="url(#paint11_linear_4_1308)"/>
<path d="M92.6963 16.4891L91.0592 13.1789C91.0592 13.1789 95.9249 12.5138 100.429 9.42022C100.429 9.42022 104.259 11.0403 107.731 13.1815C107.731 13.1815 100.868 16.4282 92.6963 16.4877L92.6963 16.4891Z" fill="url(#paint12_linear_4_1308)"/>
<path d="M100.724 9.52673C100.724 9.52673 98.9655 11.8374 91.5833 13.4825L92.8246 15.9906C92.8246 15.9906 97.0132 16.6702 106.994 12.7717C106.994 12.7717 102.777 10.0883 100.724 9.52529L100.724 9.52673Z" fill="url(#paint13_linear_4_1308)"/>
<path d="M51.0539 20.8818C51.097 21.3838 50.7723 21.8396 50.3027 21.978C50.236 21.9967 50.168 22.0111 50.0959 22.0169C49.52 22.0669 49.0073 21.6372 48.957 21.0632L48.8448 19.7757C48.7945 19.2017 49.2256 18.6906 49.8014 18.6406C49.826 18.6382 49.8505 18.6358 49.875 18.6363C49.9225 18.6358 49.9686 18.6382 50.0117 18.6434C50.4975 18.6992 50.8958 19.0907 50.9404 19.5942L51.0539 20.8818Z" fill="url(#paint14_linear_4_1308)"/>
<path d="M55.17 20.5245C55.2145 21.0266 54.8883 21.4824 54.4202 21.6208C54.3535 21.6395 54.2855 21.6539 54.2134 21.6596C53.6375 21.7097 53.1247 21.28 53.0744 20.706L52.9608 19.4184C52.912 18.8445 53.3416 18.3334 53.9174 18.2833C53.942 18.2809 53.9665 18.2786 53.9925 18.2791C54.04 18.2786 54.0861 18.281 54.1306 18.2862C54.6164 18.342 55.0147 18.7335 55.0593 19.237L55.1714 20.5246L55.17 20.5245Z" fill="url(#paint15_linear_4_1308)"/>
<path d="M59.2889 20.1659C59.332 20.668 59.0073 21.1238 58.5377 21.2621C58.471 21.2809 58.403 21.2953 58.3309 21.301C57.755 21.351 57.2422 20.9213 57.1919 20.3473L57.0798 19.0598C57.0295 18.4858 57.4606 17.9748 58.0364 17.9247C58.0609 17.9223 58.0855 17.92 58.11 17.9205C58.1575 17.92 58.2036 17.9224 58.2467 17.9275C58.7325 17.9834 59.1308 18.3749 59.1753 18.8784L59.2889 20.1659Z" fill="url(#paint16_linear_4_1308)"/>
<path d="M63.4049 19.8087C63.4495 20.3107 63.1233 20.7665 62.6551 20.9049C62.5885 20.9237 62.5205 20.9381 62.4483 20.9438C61.8725 20.9938 61.3597 20.5641 61.3094 19.9901L61.1958 18.7026C61.147 18.1286 61.5766 17.6175 62.1524 17.5675C62.177 17.5651 62.2015 17.5627 62.2274 17.5632C62.275 17.5628 62.321 17.5651 62.3656 17.5704C62.8514 17.6262 63.2497 18.0177 63.2942 18.5212L63.4064 19.8087L63.4049 19.8087Z" fill="url(#paint17_linear_4_1308)"/>
<path d="M67.5224 19.4515C67.5655 19.9535 67.2408 20.4093 66.7712 20.5477C66.7045 20.5664 66.6365 20.5808 66.5644 20.5865C65.9885 20.6366 65.4758 20.2069 65.4255 19.6329L65.3133 18.3454C65.263 17.7714 65.6941 17.2603 66.2699 17.2102C66.2945 17.2079 66.3175 17.2083 66.342 17.2074C66.3881 17.2069 66.4342 17.2093 66.4773 17.2145C66.9631 17.2688 67.3644 17.659 67.4089 18.1639L67.5224 19.4515Z" fill="url(#paint18_linear_4_1308)"/>
<path d="M71.6385 19.0942C71.683 19.5963 71.3583 20.0506 70.8915 20.1905C70.8249 20.2093 70.7526 20.2236 70.6819 20.2293C70.106 20.2794 69.5932 19.8496 69.5429 19.2757L69.4293 17.991C69.3805 17.4156 69.8101 16.9045 70.3859 16.8544C70.4105 16.8521 70.4335 16.8525 70.458 16.8516C70.5041 16.8511 70.5502 16.8535 70.5933 16.8587C71.0806 16.9131 71.4818 17.3032 71.5263 17.8081L71.6384 19.0956L71.6385 19.0942Z" fill="url(#paint19_linear_4_1308)"/>
<path d="M75.7574 18.7356C75.8005 19.2376 75.4757 19.6949 75.0062 19.8318C74.9395 19.852 74.8715 19.865 74.7994 19.8707C74.2235 19.9207 73.7107 19.4924 73.6605 18.917L73.5482 17.6324C73.498 17.057 73.929 16.5459 74.5049 16.4958C74.5294 16.4935 74.5525 16.4939 74.577 16.493C74.6231 16.4925 74.6691 16.4949 74.7123 16.5C75.1981 16.5544 75.5993 16.9446 75.6438 17.4509L75.7574 18.7356Z" fill="url(#paint20_linear_4_1308)"/>
<path d="M79.8735 18.3784C79.918 18.8804 79.5933 19.3362 79.1266 19.4746C79.0599 19.4948 78.9876 19.5092 78.9168 19.5163C78.341 19.565 77.8282 19.1367 77.7779 18.5612L77.6643 17.2766C77.6154 16.7026 78.0451 16.1901 78.6209 16.1415C78.6454 16.1391 78.67 16.1367 78.6959 16.1372C78.742 16.1367 78.7852 16.139 78.8297 16.1443C79.317 16.1987 79.7168 16.5902 79.7612 17.0952L79.8735 18.3798L79.8735 18.3784Z" fill="url(#paint21_linear_4_1308)"/>
<path d="M51.054 20.8818C51.0971 21.3838 50.7723 21.8396 50.3027 21.978C49.8183 21.9222 49.4186 21.5307 49.3755 21.0272L49.2619 19.7396C49.2174 19.2376 49.5436 18.7818 50.0117 18.6434C50.4975 18.6992 50.8959 19.0907 50.9404 19.5942L51.054 20.8818Z" fill="url(#paint22_linear_4_1308)"/>
<path d="M55.17 20.5245C55.2145 21.0266 54.8883 21.4824 54.4202 21.6208C53.9344 21.5649 53.536 21.1734 53.4915 20.6699L53.3794 19.3824C53.3348 18.8804 53.6596 18.4246 54.1292 18.2862C54.615 18.342 55.0133 18.7335 55.0578 19.237L55.17 20.5245Z" fill="url(#paint23_linear_4_1308)"/>
<path d="M59.2889 20.1659C59.3321 20.668 59.0073 21.1238 58.5377 21.2621C58.0533 21.2063 57.6536 20.8148 57.6105 20.3113L57.4969 19.0238C57.4524 18.5217 57.7786 18.0659 58.2467 17.9275C58.7325 17.9834 59.1308 18.3749 59.1754 18.8784L59.2889 20.1659Z" fill="url(#paint24_linear_4_1308)"/>
<path d="M63.405 19.8087C63.4495 20.3107 63.1233 20.7665 62.6552 20.9049C62.1693 20.8491 61.771 20.4576 61.7265 19.9541L61.6144 18.6666C61.5698 18.1645 61.8946 17.7087 62.3642 17.5703C62.85 17.6261 63.2483 18.0177 63.2928 18.5212L63.405 19.8087Z" fill="url(#paint25_linear_4_1308)"/>
<path d="M67.5225 19.4515C67.5656 19.9535 67.2408 20.4093 66.7712 20.5477C66.2854 20.4918 65.8871 20.1003 65.844 19.5969L65.7304 18.3093C65.6859 17.8073 66.0106 17.3529 66.4773 17.2145C66.9632 17.2688 67.3644 17.659 67.4089 18.1639L67.5225 19.4515Z" fill="url(#paint26_linear_4_1308)"/>
<path d="M71.6385 19.0942C71.683 19.5963 71.3583 20.0507 70.8916 20.1905C70.4028 20.1375 70.0045 19.7446 69.96 19.2396L69.8478 17.955C69.8033 17.4529 70.1251 16.9985 70.5919 16.8586C71.0792 16.913 71.4804 17.3032 71.5249 17.8081L71.637 19.0956L71.6385 19.0942Z" fill="url(#paint27_linear_4_1308)"/>
<path d="M75.7574 18.7356C75.8005 19.2376 75.4757 19.6949 75.0062 19.8318C74.5204 19.776 74.122 19.3859 74.079 18.881L73.9653 17.5963C73.9208 17.0943 74.2456 16.6385 74.7123 16.5C75.1981 16.5544 75.5993 16.9446 75.6438 17.4509L75.7574 18.7356Z" fill="url(#paint28_linear_4_1308)"/>
<path d="M79.8735 18.3784C79.918 18.8804 79.5933 19.3362 79.1266 19.4747C78.6407 19.4203 78.2395 19.0301 78.195 18.5252L78.0829 17.2377C78.0383 16.7356 78.3602 16.2812 78.8298 16.1414C79.3171 16.1958 79.7168 16.5873 79.7613 17.0923L79.8735 18.3769L79.8735 18.3784Z" fill="url(#paint29_linear_4_1308)"/>
<path d="M94.497 12.6686L95.6984 16.0044L96.287 15.8254L94.7394 12.5055L94.497 12.6686Z" fill="url(#paint30_linear_4_1308)"/>
<path d="M99.8715 10.2849L104.687 13.9971L105.364 13.672L100.079 10.1182L99.8715 10.2849Z" fill="url(#paint31_linear_4_1308)"/>
<path style="mix-blend-mode:multiply" opacity="0.36" d="M28.0781 17.4123L16.8777 19.8558L16.8024 19.8715L16.7764 19.8767L10.8914 5.33246L10.9135 5.30706L22.1995 3.04772C22.1995 3.04772 18.8275 7.69795 18.7122 13.7283C18.6129 18.9002 28.0766 17.4123 28.0766 17.4123L28.0781 17.4123Z" fill="url(#paint32_linear_4_1308)"/>
<path style="mix-blend-mode:multiply" opacity="0.23" d="M14.827 15.061C14.827 15.061 17.6478 5.9838 21.6547 3.34396L10.9682 5.5207L14.827 15.061Z" fill="url(#paint33_linear_4_1308)"/>
<path style="mix-blend-mode:multiply" opacity="0.58" d="M13.4127 11.5643C13.4127 11.5643 12.8224 6.79477 14.2065 5.82055C15.5906 4.84633 21.6532 3.34393 21.6532 3.34393L10.9668 5.52067L13.4113 11.5642L13.4127 11.5643Z" fill="url(#paint34_linear_4_1308)"/>
<path d="M20.1282 0.547195C20.1282 0.547195 21.6982 0.278962 22.8701 1.94987C24.0434 3.62081 29.3256 12.8066 30.6227 14.0564C31.9199 15.3062 33.8763 14.7414 33.8763 14.7414C33.8763 14.7414 28.0936 7.70955 25.6294 4.62233C23.1652 1.53511 23.4491 0.0416882 20.1282 0.547195Z" fill="url(#paint35_linear_4_1308)"/>
<path d="M22.6968 2.46762C22.8218 1.13754 11.3671 2.83772 11.57 4.12276C11.7755 5.42365 22.5387 4.14884 22.6968 2.46762Z" fill="url(#paint36_linear_4_1308)"/>
<path d="M0.553899 6.43067C0.553899 6.43067 2.43684 6.64411 4.20803 6.61403C5.97922 6.58396 20.7437 3.72035 21.9069 3.05326L0.553899 6.43067Z" fill="url(#paint37_linear_4_1308)"/>
<path d="M21.9055 3.05323L4.23033 6.36893L0.55393 6.43067C0.55393 6.43067 9.20305 4.12207 12.7596 3.29394C16.6737 2.38117 23.6936 1.47979 21.9055 3.05323Z" fill="url(#paint38_linear_4_1308)"/>
<path d="M4.06531 6.26363C3.60269 6.27146 19.8269 1.97278 21.3481 2.47757C22.8693 2.98091 4.37227 6.25837 4.06531 6.26363Z" fill="url(#paint39_linear_4_1308)"/>
<path style="mix-blend-mode:multiply" opacity="0.58" d="M10.9682 5.5207L16.7764 19.8767L17.9717 19.6167C17.9717 19.6167 10.9471 8.61918 12.3002 5.2663L10.9682 5.52213L10.9682 5.5207Z" fill="url(#paint40_linear_4_1308)"/>
<path d="M24.6861 2.12605L24.1438 1.44586C24.1438 1.44586 26.9643 0.678885 27.5562 1.04847C28.148 1.41806 24.6861 2.12605 24.6861 2.12605Z" fill="url(#paint41_linear_4_1308)"/>
<path style="mix-blend-mode:color-dodge" opacity="0.64" d="M34.5302 14.6771C34.5302 14.6771 34.3403 14.7322 33.8777 14.74C33.4151 14.7478 27.8465 16.9653 25.6804 14.8779C22.049 11.3793 23.8771 2.59068 23.8771 2.59068C23.8722 2.33497 24.514 2.44278 24.5513 2.45072L24.5527 2.45075L24.5639 2.46678C26.883 5.39308 30.6868 10.9746 34.5302 14.6771Z" fill="url(#paint42_linear_4_1308)"/>
<path style="mix-blend-mode:multiply" opacity="0.76" d="M43.2147 25.1641C43.2147 25.1641 36.9762 27.3838 31.9971 27.4636C31.9582 27.4628 31.9122 27.4576 31.859 27.4522C31.5383 27.4227 31.0006 27.3687 30.3553 27.2924C28.5822 27.0597 26.6398 26.654 24.314 25.9749C24.2984 25.9617 24.2856 25.9514 24.2729 25.9382C23.4491 25.1446 28.7006 20.1678 28.7006 20.1678L43.2147 25.1641Z" fill="url(#paint43_linear_4_1308)"/>
<path style="mix-blend-mode:multiply" opacity="0.76" d="M45.312 24.2575C45.312 24.2575 39.0735 26.4772 34.0944 26.557C34.0555 26.5577 34.0095 26.551 33.9563 26.5456C33.6356 26.5161 33.0979 26.4621 32.4526 26.3858C30.6796 26.1531 28.7371 25.7474 26.4113 25.0683C26.3957 25.0551 26.383 25.0448 26.3703 25.0316C25.5465 24.238 28.6977 20.0299 28.6977 20.0299L45.312 24.2575Z" fill="url(#paint44_linear_4_1308)"/>
<path style="mix-blend-mode:multiply" opacity="0.41" d="M112.678 18.2248C112.699 18.6517 112.582 19.1189 112.173 19.5443C112.173 19.5443 107.307 22.474 99.1782 22.1466C99.0573 22.1441 98.9364 22.1373 98.814 22.132C89.9862 21.6769 86.6311 17.0566 75.7324 15.359C64.8337 13.66 39.3531 24.5572 27.2763 23.6197C15.9432 22.739 14.6212 22.4278 14.4995 22.3923C14.498 22.3923 14.4966 22.3908 14.4952 22.3908C14.4923 22.3893 14.4909 22.3893 14.4909 22.3893C14.4909 22.3893 13.4813 21.3793 14.4584 20.3724C14.4584 20.3724 19.7486 21.2166 34.7765 19.9279C49.8043 18.6406 68.6342 10.6096 80.8975 14.4903C88.2095 16.8029 96.0121 18.1548 102.812 18.0646C106.236 18.0221 109.404 17.6112 112.125 16.7747L112.127 16.7747C112.127 16.7747 112.132 16.7806 112.139 16.7922C112.148 16.8038 112.16 16.8213 112.176 16.8432C112.185 16.8563 112.194 16.8694 112.202 16.8825C112.343 17.095 112.638 17.6022 112.676 18.1888C112.677 18.2018 112.679 18.2133 112.678 18.2248Z" fill="url(#paint45_linear_4_1308)"/>
<path d="M45.3686 24.0935C44.9857 24.5754 44.1768 25.0343 43.1072 25.419C39.5283 26.7105 33.0227 27.1872 29.7699 24.9757C29.5241 24.807 29.2961 24.541 29.1026 24.2082C28.4607 23.1153 28.1773 21.3203 28.6977 20.0313C28.8221 19.7193 28.9965 19.4342 29.2231 19.1976C30.2343 18.144 31.8201 17.2414 33.6569 16.5348C36.1732 15.5649 39.1675 14.9681 41.8308 14.8513C42.1625 14.8365 42.4882 14.8287 42.808 14.8295L42.8095 14.8295C42.9593 14.8297 43.1077 14.8313 43.2531 14.8357L45.3686 24.0949L45.3686 24.0935Z" fill="url(#paint46_linear_4_1308)"/>
<path d="M43.6017 25.2909C45.6946 25.1384 47.2191 22.6728 47.0068 19.784C46.7944 16.8952 44.9257 14.677 42.8328 14.8295C40.7399 14.9821 39.2154 17.4476 39.4277 20.3364C39.64 23.2253 41.5088 25.4435 43.6017 25.2909Z" fill="url(#paint47_linear_4_1308)"/>
<path style="mix-blend-mode:multiply" opacity="0.64" d="M28.4375 21.8469C28.4375 21.8469 29.416 23.1089 34.2914 23.3113C39.1683 23.5138 41.9126 22.5973 41.9126 22.5973L44.5898 24.4913C44.5898 24.4913 33.4393 27.8117 28.7297 23.2744C28.7297 23.2744 28.3919 22.8124 28.436 21.8483L28.4375 21.8469Z" fill="url(#paint48_linear_4_1308)"/>
<path d="M40.0401 21.7293L41.3337 21.4511C41.3337 21.4511 39.9894 16.9894 43.0426 15.1272L42.1408 15.1936C42.1408 15.1936 39.0773 16.431 40.0401 21.7307L40.0401 21.7293Z" fill="url(#paint49_linear_4_1308)"/>
<path d="M40.1054 22.0609L40.3396 22.8713L41.6235 22.3631L41.4254 21.7603L40.1054 22.0609Z" fill="url(#paint50_linear_4_1308)"/>
<path d="M44.3878 24.4718C45.942 24.3585 47.0474 22.1633 46.8567 19.5687C46.666 16.974 45.2515 14.9625 43.6973 15.0758C42.1431 15.1891 41.0377 17.3843 41.2284 19.9789C41.4191 22.5736 42.8336 24.5851 44.3878 24.4718Z" fill="url(#paint51_linear_4_1308)"/>
<path d="M46.3645 19.6075C46.4311 20.5136 46.3058 21.3612 46.0413 22.0436C45.9212 22.3557 45.7714 22.6355 45.5967 22.8675C45.2531 23.3301 44.8164 23.6185 44.3244 23.6544C44.2913 23.6566 44.261 23.6574 44.2293 23.6582C42.9844 23.666 41.8693 22.035 41.7173 19.9454C41.6991 19.7038 41.6954 19.4639 41.7044 19.2329C41.7457 18.1222 42.0779 17.1554 42.5872 16.5525C42.9134 16.1671 43.313 15.9311 43.7545 15.8984C45.0385 15.8053 46.2063 17.4661 46.3631 19.6075L46.3645 19.6075Z" fill="#ECFFDD"/>
<path d="M45.9118 21.8945C45.895 21.9401 45.8754 21.9843 45.8587 22.0284C45.7559 22.2662 45.6348 22.4805 45.4971 22.6644C45.2082 23.0578 44.8428 23.3146 44.4337 23.3824C44.3932 23.3916 44.3513 23.3965 44.308 23.3985C44.2777 23.4007 44.2475 23.4016 44.2187 23.401C43.0559 23.4075 42.0136 21.8843 41.8717 19.9313C41.8636 19.832 41.8599 19.7329 41.8576 19.6352C41.8558 19.5102 41.8569 19.3853 41.8608 19.2648L41.8593 19.2647C41.8991 18.2259 42.2085 17.3232 42.6867 16.7599C42.7428 16.6921 42.8017 16.6316 42.8634 16.5725C43.1321 16.3238 43.442 16.1721 43.7782 16.1488C44.9786 16.0612 46.0693 17.6141 46.216 19.616C46.2795 20.4617 46.1625 21.2549 45.9147 21.8917L45.9118 21.8945Z" fill="url(#paint52_linear_4_1308)"/>
<path d="M45.0067 21.912C44.8928 22.4827 44.6938 22.9884 44.4336 23.3852C44.3931 23.3945 44.3512 23.3994 44.308 23.4014C44.2777 23.4036 44.2474 23.4044 44.2186 23.4038C43.0558 23.4104 42.0135 21.8871 41.8716 19.9342C41.8546 19.7084 41.8506 19.4828 41.8607 19.2676L41.8592 19.2676C41.8991 18.2287 42.2084 17.326 42.6867 16.7628C42.7428 16.695 42.8016 16.6344 42.8633 16.5754C43.9929 16.785 44.9614 18.3268 45.1036 20.264C45.1465 20.8465 45.1092 21.4043 45.0096 21.9107L45.0067 21.912Z" fill="url(#paint53_linear_4_1308)"/>
<path d="M44.5601 15.6721C44.5601 15.6721 47.2574 17.2118 46.5228 21.3885L46.7767 21.3707C46.7767 21.3707 47.6345 17.5827 44.7378 15.5063L44.5601 15.6721Z" fill="url(#paint54_linear_4_1308)"/>
<path d="M41.8309 14.8499C40.3386 15.3336 39.7006 16.5269 39.7006 16.5269C31.7234 17.1073 28.805 19.9258 28.6991 20.0313C28.8236 19.7179 28.9979 19.4343 29.2246 19.1976C31.6222 16.7003 37.2239 15.0506 41.8309 14.8499Z" fill="url(#paint55_linear_4_1308)"/>
<path style="mix-blend-mode:color-dodge" opacity="0.86" d="M43.1087 25.419C39.5298 26.7105 33.0241 27.1872 29.7714 24.9757C29.5255 24.807 29.2976 24.5411 29.1041 24.2083C30.3852 24.6852 34.2017 27.0201 42.1813 25.1144C42.1813 25.1144 42.5305 25.2996 43.1072 25.419L43.1087 25.419Z" fill="url(#paint56_linear_4_1308)"/>
<path style="mix-blend-mode:multiply" opacity="0.58" d="M45.8586 22.0299C45.7558 22.2676 45.6348 22.482 45.4971 22.6659C45.2081 23.0592 44.8427 23.316 44.4337 23.3838C44.3931 23.393 44.3513 23.3979 44.308 23.3999C44.2777 23.4022 44.2474 23.403 44.2186 23.4024C43.0559 23.4089 42.0135 21.8857 41.8717 19.9327C41.8636 19.8335 41.8599 19.7343 41.8575 19.6366C42.1543 20.2745 42.9724 21.4902 45.0082 21.9106C45.2707 21.9634 45.5537 22.0036 45.8601 22.0285L45.8586 22.0299Z" fill="url(#paint57_linear_4_1308)"/>
<path style="mix-blend-mode:color-dodge" opacity="0.64" d="M42.8325 14.8314C42.8325 14.8314 40.169 14.9597 39.5015 18.6697C39.5015 18.6697 31.4041 19.1356 33.6583 16.5334C36.1747 15.565 39.169 14.9652 41.8309 14.8484C42.1625 14.8336 42.4883 14.8273 42.8081 14.8281L42.8095 14.8281C42.8239 14.8298 42.8325 14.8314 42.8325 14.8314Z" fill="url(#paint58_linear_4_1308)"/>
<path style="mix-blend-mode:color-dodge" opacity="0.64" d="M28.4723 20.9099C28.4723 20.9099 33.7444 19.3856 39.4778 21.0429L39.7764 22.0858C39.7764 22.0858 37.3528 20.8289 33.3185 20.8532C29.2855 20.879 28.4404 21.2079 28.4404 21.2079L28.4709 20.9098L28.4723 20.9099Z" fill="url(#paint59_linear_4_1308)"/>
<path style="mix-blend-mode:color-dodge" opacity="0.64" d="M84.0592 10.0527C84.0592 10.0527 77.3535 8.88827 63.1591 10.9176C59.1381 11.4922 55.7483 11.9848 52.9537 12.3962C52.1589 12.5122 51.4133 12.6234 50.7154 12.7255C45.4338 13.5086 42.8598 13.9129 42.6459 13.9459C42.8962 13.8921 46.5453 13.119 51.7912 12.1069C52.5707 11.9562 53.385 11.8004 54.2281 11.6423C65.4637 9.52128 81.8947 6.74896 89.5658 7.0527C89.5658 7.0527 83.6325 7.37159 84.0592 10.0527Z" fill="url(#paint60_linear_4_1308)"/>
<path style="mix-blend-mode:multiply" opacity="0.58" d="M59.6534 12.5797C59.2832 12.6469 51.1963 14.0852 47.2149 13.9124C46.2232 13.8693 45.487 13.7265 45.1875 13.4375C45.179 13.4302 45.1705 13.4214 45.1635 13.4141C49.8249 12.449 54.6778 11.4907 59.4611 10.6257C57.1011 11.0617 51.2407 12.1848 50.7168 12.7284C50.5123 12.9368 51.286 13.0042 52.4488 12.9948C54.9876 12.976 59.3907 12.6031 59.6533 12.5811L59.6534 12.5797Z" fill="url(#paint61_linear_4_1308)"/>
<path d="M60.4328 10.4518C60.4328 10.4518 60.4277 10.4516 60.4227 10.4532C60.4244 10.4516 60.4261 10.4516 60.4261 10.4516C60.4278 10.45 60.4295 10.45 60.4311 10.4517L60.4328 10.4518Z" fill="url(#paint62_linear_4_1308)"/>
<path d="M105.747 14.1551L107.733 13.2261C107.733 13.2261 110.037 14.6859 111.844 16.4272C111.844 16.4272 108.484 14.1101 105.747 14.1565L105.747 14.1551Z" fill="#EBFEFF"/>
<path d="M78.3678 23.7055C78.3678 23.7055 79.6123 24.0022 80.2861 25.159L83.5409 24.362C83.5409 24.362 82.0925 23.392 79.9574 23.1835L78.3663 23.7069L78.3678 23.7055Z" fill="url(#paint63_linear_4_1308)"/>
<path d="M70.7945 22.2751C70.7945 22.2751 84.9278 21.8327 88.7244 24.7172C92.521 27.6017 83.607 28.199 83.607 28.199C83.607 28.199 92.9212 28.0421 90.876 24.6819C88.7527 21.1938 70.7944 22.2765 70.7944 22.2765L70.7945 22.2751Z" fill="url(#paint64_linear_4_1308)"/>
<path style="mix-blend-mode:color-dodge" opacity="0.64" d="M108.556 22.7549C105.243 25.0571 101.372 26.3355 97.3051 27.1963C91.3369 27.7371 85.6169 28.1206 80.0968 28.3746L82.5891 27.601C82.5891 27.601 92.7225 27.1147 97.9859 26.304C103.814 25.4057 108.039 23.0991 108.556 22.7549Z" fill="url(#paint65_linear_4_1308)"/>
<path style="mix-blend-mode:color-dodge" opacity="0.64" d="M108.603 22.7243C108.591 22.7329 108.574 22.743 108.556 22.7559C108.571 22.7444 108.588 22.7344 108.603 22.7243Z" fill="url(#paint66_linear_4_1308)"/>
<path d="M46.3382 17.4257C46.3382 17.4257 64.8778 11.2728 76.2031 11.8317C85.6214 12.2973 89.3463 16.2976 97.1575 17.2992C105.164 18.3249 112.125 16.7747 112.125 16.7747C112.125 16.7747 106.532 18.7016 97.6341 17.8775C89.652 17.1381 83.08 12.4381 73.6419 12.5968C65.472 12.7338 46.6134 18.1364 46.6134 18.1364L46.3382 17.4257Z" fill="url(#paint67_linear_4_1308)"/>
<path d="M96.5058 17.8173L96.8888 17.2636C96.8888 17.2636 100.646 17.7477 103.423 17.7008L103.429 18.0541C103.429 18.0541 98.7723 18.3013 96.5058 17.8173Z" fill="#EBFEFF"/>
<path d="M100.431 9.42025L99.8773 9.78668C99.8773 9.78668 96.9328 8.21618 92.2735 7.65914C87.7378 7.1161 85.7386 7.87534 85.6369 7.91348C85.6969 7.87162 86.4035 7.41066 88.3213 7.04179C88.7493 7.03899 89.1641 7.04168 89.5673 7.0513C93.4021 7.13495 97.1254 8.09804 100.41 9.39828L100.411 9.39831L100.431 9.41882L100.431 9.42025Z" fill="#EBFEFF"/>
<path style="mix-blend-mode:multiply" opacity="0.76" d="M34.2333 28.9393C34.2333 28.9393 49.9678 28.5323 52.4047 27.7173C54.843 26.9024 45.3932 26.8583 45.3932 26.8583L34.2333 28.9379L34.2333 28.9393Z" fill="url(#paint68_linear_4_1308)"/>
<path style="mix-blend-mode:multiply" opacity="0.76" d="M79.527 25.9305C77.456 26.9625 57.2397 30.1261 49.5159 30.7805C41.7215 31.4407 16.1055 33.33 16.1055 33.33L15.3002 32.9001C15.3002 32.9001 26.9537 32.0555 48.8774 30.0137C70.5789 27.9917 77.6155 24.7127 77.7551 24.6466C78.9535 25.0141 79.3884 25.5213 79.527 25.9305Z" fill="url(#paint69_linear_4_1308)"/>
<path style="mix-blend-mode:color-dodge" opacity="0.64" d="M14.6988 32.5805L15.3002 32.9C15.3002 32.9 63.1707 28.7186 76.6079 24.3849L74.0249 24.2391C74.0249 24.2391 35.2849 31.4938 14.6988 32.5805Z" fill="url(#paint70_linear_4_1308)"/>
<path d="M50.4967 31.0776L51.3694 30.6013C51.3694 30.6013 63.0537 29.3711 67.3569 28.3829L66.5962 29.3741C66.5962 29.3741 52.9921 30.8598 50.4967 31.0776Z" fill="url(#paint71_linear_4_1308)"/>
<path style="mix-blend-mode:color-dodge" opacity="0.64" d="M92.0725 13.3704L96.933 15.7251L99.3243 15.2366L94.1162 12.8332L92.0725 13.3704Z" fill="url(#paint72_linear_4_1308)"/>
<path style="mix-blend-mode:color-dodge" opacity="0.64" d="M95.6696 12.6034L100.492 14.9401L102.607 14.3239L97.7133 12.0662L95.6696 12.6034Z" fill="url(#paint73_linear_4_1308)"/>
<path d="M95.2617 16.3689L95.4204 15.9342C95.4204 15.9342 97.7175 15.685 99.5835 15.1729L99.3333 15.7911C99.3333 15.7911 96.6293 16.279 95.2617 16.3689Z" fill="#EBFEFF"/>
<path d="M99.8989 15.6762L100.258 15.0028L101.852 14.5441L101.551 15.2919C101.551 15.2919 100.285 15.5964 99.9003 15.6762L99.8989 15.6762Z" fill="#EBFEFF"/>
<path d="M99.505 10.5301L99.6044 9.9592L100.411 9.40118L100.724 9.52529C100.724 9.52529 100.13 10.2528 99.505 10.5287L99.505 10.5301Z" fill="#EBFEFF"/>
<path d="M59.6462 12.5796C58.6525 12.8423 50.7312 13.6507 50.7154 12.727C50.7136 12.5302 51.1314 12.319 51.7912 12.1069C52.5707 11.9562 53.385 11.8004 54.2281 11.6423C53.5425 11.8496 53.051 12.0708 52.9601 12.2901C52.945 12.3285 52.9428 12.363 52.9537 12.3962C53.1842 13.1045 59.3922 12.6002 59.6462 12.5796Z" fill="url(#paint74_linear_4_1308)"/>
<path style="mix-blend-mode:multiply" opacity="0.76" d="M83.8783 26.8288L83.8754 26.8316C82.6425 27.8778 80.0103 28.594 76.0509 29.1124C76.0509 29.1124 74.981 29.2285 73.1795 29.403C73.3677 29.358 76.4443 28.6121 78.9353 27.544C78.9353 27.544 83.1423 27.1068 83.8798 26.8288L83.8783 26.8288Z" fill="url(#paint75_linear_4_1308)"/>
<path style="mix-blend-mode:multiply" opacity="0.76" d="M80.0969 28.3746C80.0969 28.3746 88.9822 28.1272 89.6051 26.3247C90.2281 24.5223 85.1957 23.3215 85.1957 23.3215C85.1957 23.3215 89.5298 24.7867 88.7679 26.2632C88.18 27.4015 82.8334 27.4896 82.8334 27.4896L80.0968 28.3761L80.0969 28.3746Z" fill="url(#paint76_linear_4_1308)"/>
<path d="M90.1975 27.2328C90.1975 27.2328 91.4263 26.6016 91.4088 25.6147C91.4088 25.6147 97.9797 26.044 103.54 24.5242C109.1 23.0058 112.52 19.0473 112.52 19.0473C112.52 19.0473 109.663 23.4897 101.765 25.4919C93.8688 27.4941 90.196 27.2343 90.196 27.2343L90.1975 27.2328Z" fill="url(#paint77_linear_4_1308)"/>
<path style="mix-blend-mode:multiply" opacity="0.41" d="M112.678 18.2248C112.699 18.6517 112.582 19.1189 112.173 19.5443C111.09 20.7702 109.905 21.8116 108.637 22.6991C108.637 22.6991 108.625 22.7075 108.601 22.7243C108.59 22.7327 108.574 22.7424 108.556 22.7549C105.243 25.0571 101.372 26.3369 97.3036 27.1963C93.6448 27.5283 90.0794 27.8005 86.5971 28.0199L86.5957 28.0199C86.2408 28.0428 85.8889 28.0644 85.5355 28.0845C85.5326 28.0859 85.5312 28.0858 85.5297 28.0858C83.6964 28.1965 81.8864 28.2918 80.0968 28.3746L80.094 28.3746C77.4984 28.4927 74.9466 28.5831 72.4356 28.6469L79.5231 26.6211C79.5231 26.6211 82.9525 26.4452 84.439 26.1782C85.9268 25.9126 87.1178 26.29 88.7694 26.2618C90.4209 26.2336 91.1697 25.617 91.1697 25.617C94.7151 25.1203 97.3396 23.6544 99.1797 22.1452C101.61 20.1554 102.672 18.0919 102.672 18.0919L102.812 18.0631C104.984 18.0369 107.054 17.8621 108.972 17.522C110.077 17.3276 111.131 17.079 112.125 16.7732L112.127 16.7733C112.127 16.7733 112.132 16.7791 112.139 16.7908C112.148 16.8024 112.16 16.8199 112.176 16.8418C112.185 16.8549 112.194 16.868 112.202 16.8811C112.462 17.2353 112.66 17.6974 112.676 18.1874C112.677 18.2003 112.679 18.2119 112.678 18.2233L112.678 18.2248Z" fill="url(#paint78_linear_4_1308)"/>
<path style="mix-blend-mode:multiply" opacity="0.41" d="M112.678 18.2248C112.699 18.6517 112.582 19.1189 112.173 19.5443C111.09 20.7702 109.905 21.8116 108.636 22.6991C108.636 22.6991 108.625 22.7075 108.601 22.7243C108.59 22.7327 108.574 22.7424 108.556 22.7549C105.243 25.0571 101.372 26.3369 97.3036 27.1963C93.6448 27.5283 90.0794 27.8005 86.5971 28.0199C87.4781 27.9128 88.7976 27.6352 90.1921 26.9297C90.1921 26.9297 97.0685 26.7837 102.214 24.2359C107.36 21.6896 108.971 17.5219 108.971 17.5219C110.075 17.3275 111.129 17.079 112.124 16.7732L112.125 16.7732C112.125 16.7732 112.131 16.7791 112.138 16.7907C112.146 16.8024 112.159 16.8199 112.174 16.8417C112.184 16.8548 112.192 16.8679 112.201 16.881C112.46 17.2353 112.658 17.6974 112.674 18.1874C112.675 18.2003 112.678 18.2119 112.676 18.2233L112.678 18.2248Z" fill="url(#paint79_linear_4_1308)"/>
<path style="mix-blend-mode:multiply" opacity="0.41" d="M28.5187 26.9966C28.5187 26.9966 28.5158 26.9965 28.5086 26.9964C28.5057 26.9963 28.5014 26.9963 28.4971 26.9962C27.2313 26.7565 25.8579 26.4256 24.3154 25.9764C21.6545 25.1957 18.488 24.0558 14.4994 22.3937C14.498 22.3937 14.4966 22.3922 14.4951 22.3922C14.4923 22.3907 14.4908 22.3907 14.4908 22.3907C13.8568 22.0418 13.8458 20.6012 14.4569 20.3738L14.4583 20.3739C14.9695 20.2464 15.4792 20.1189 15.986 19.9913L16.7764 19.8782L30.9793 16.927C30.9793 16.927 26.2786 18.763 25.1864 21.8225C24.0941 24.8834 28.5187 26.998 28.5187 26.998L28.5187 26.9966Z" fill="url(#paint80_linear_4_1308)"/>
<path style="mix-blend-mode:multiply" opacity="0.41" d="M22.8522 25.5245C20.5062 24.7732 17.7809 23.7586 14.498 22.3923C14.4966 22.3923 14.4952 22.3908 14.4937 22.3908C14.4909 22.3893 14.4894 22.3892 14.4894 22.3892C13.8554 22.0403 13.8443 20.5998 14.4555 20.3724L14.4569 20.3724C14.9681 20.2449 15.6292 20.1119 16.1399 20.0031C17.9168 19.6213 19.4744 19.3255 20.9874 18.9599L23.3432 18.4463C23.3432 18.4463 19.0625 19.8873 19.9189 22.1276C20.7533 24.3129 22.7525 25.4693 22.8522 25.5259L22.8522 25.5245Z" fill="url(#paint81_linear_4_1308)"/>
<path style="mix-blend-mode:multiply" opacity="0.76" d="M40.9578 27.6858C40.9578 27.6858 43.7871 25.3552 60.9676 23.7671C60.9676 23.7671 44.4255 23.9997 39.3497 27.9863L40.9593 27.6859L40.9578 27.6858Z" fill="url(#paint82_linear_4_1308)"/>
<path d="M15.3095 33.5062L8.23894 29.7381L6.68966 29.7655L9.78188 33.4973L15.3095 33.5062Z" fill="url(#paint83_linear_4_1308)"/>
<defs>
<linearGradient id="paint0_linear_4_1308" x1="23.8686" y1="2.12295" x2="27.9946" y2="2.05287" gradientUnits="userSpaceOnUse">
<stop stop-color="#3D2245"/>
<stop offset="1" stop-color="#604155"/>
</linearGradient>
<linearGradient id="paint1_linear_4_1308" x1="22.6855" y1="1.67466" x2="28.1523" y2="1.5818" gradientUnits="userSpaceOnUse">
<stop stop-color="#E6E5FF"/>
<stop offset="1" stop-color="#D9D8E7"/>
</linearGradient>
<linearGradient id="paint2_linear_4_1308" x1="13.9644" y1="18.9814" x2="112.663" y2="17.3049" gradientUnits="userSpaceOnUse">
<stop stop-color="#EBDCFF"/>
<stop offset="1" stop-color="#A7A3BA"/>
</linearGradient>
<linearGradient id="paint3_linear_4_1308" x1="14.4081" y1="14.3216" x2="112.056" y2="12.6629" gradientUnits="userSpaceOnUse">
<stop stop-color="white"/>
<stop offset="1" stop-color="#BDDDF0"/>
</linearGradient>
<linearGradient id="paint4_linear_4_1308" x1="40.5728" y1="27.2705" x2="84.6632" y2="26.5216" gradientUnits="userSpaceOnUse">
<stop stop-color="#EBDCFF"/>
<stop offset="1" stop-color="#A7A3BA"/>
</linearGradient>
<linearGradient id="paint5_linear_4_1308" x1="45.2032" y1="27.1064" x2="79.985" y2="25.4364" gradientUnits="userSpaceOnUse">
<stop stop-color="#8E7484"/>
<stop offset="1" stop-color="#533C56"/>
</linearGradient>
<linearGradient id="paint6_linear_4_1308" x1="28.2202" y1="24.4907" x2="90.0936" y2="23.4397" gradientUnits="userSpaceOnUse">
<stop stop-color="#A394B3"/>
<stop offset="1" stop-color="#8E7484"/>
</linearGradient>
<linearGradient id="paint7_linear_4_1308" x1="9.73171" y1="30.6703" x2="80.1107" y2="29.4748" gradientUnits="userSpaceOnUse">
<stop stop-color="#8E7484"/>
<stop offset="1" stop-color="#533C56"/>
</linearGradient>
<linearGradient id="paint8_linear_4_1308" x1="9.71133" y1="29.4702" x2="79.6179" y2="28.2827" gradientUnits="userSpaceOnUse">
<stop stop-color="#EBDCFF"/>
<stop offset="1" stop-color="#A7A3BA"/>
</linearGradient>
<linearGradient id="paint9_linear_4_1308" x1="6.51183" y1="31.5915" x2="16.4057" y2="31.4235" gradientUnits="userSpaceOnUse">
<stop stop-color="#EBDCFF"/>
<stop offset="1" stop-color="#A7A3BA"/>
</linearGradient>
<linearGradient id="paint10_linear_4_1308" x1="8.93673" y1="10.328" x2="34.6032" y2="9.89203" gradientUnits="userSpaceOnUse">
<stop stop-color="#E6E5FF"/>
<stop offset="1" stop-color="#D9D8E7"/>
</linearGradient>
<linearGradient id="paint11_linear_4_1308" x1="8.32321" y1="10.3383" x2="33.4871" y2="9.91084" gradientUnits="userSpaceOnUse">
<stop stop-color="#EBDCFF"/>
<stop offset="1" stop-color="#A7A3BA"/>
</linearGradient>
<linearGradient id="paint12_linear_4_1308" x1="91.0581" y1="13.0509" x2="107.725" y2="12.7678" gradientUnits="userSpaceOnUse">
<stop stop-color="#EBDCFF"/>
<stop offset="1" stop-color="#A7A3BA"/>
</linearGradient>
<linearGradient id="paint13_linear_4_1308" x1="91.5723" y1="12.8786" x2="106.992" y2="12.6167" gradientUnits="userSpaceOnUse">
<stop stop-color="#3D2245"/>
<stop offset="1" stop-color="#604155"/>
</linearGradient>
<linearGradient id="paint14_linear_4_1308" x1="48.8523" y1="20.3486" x2="51.0471" y2="20.3113" gradientUnits="userSpaceOnUse">
<stop stop-color="white"/>
<stop offset="1" stop-color="#BDDDF0"/>
</linearGradient>
<linearGradient id="paint15_linear_4_1308" x1="52.9691" y1="19.991" x2="55.1639" y2="19.9537" gradientUnits="userSpaceOnUse">
<stop stop-color="white"/>
<stop offset="1" stop-color="#BDDDF0"/>
</linearGradient>
<linearGradient id="paint16_linear_4_1308" x1="57.086" y1="19.6335" x2="59.2808" y2="19.5962" gradientUnits="userSpaceOnUse">
<stop stop-color="white"/>
<stop offset="1" stop-color="#BDDDF0"/>
</linearGradient>
<linearGradient id="paint17_linear_4_1308" x1="61.2028" y1="19.2759" x2="63.3976" y2="19.2386" gradientUnits="userSpaceOnUse">
<stop stop-color="white"/>
<stop offset="1" stop-color="#BDDDF0"/>
</linearGradient>
<linearGradient id="paint18_linear_4_1308" x1="65.3211" y1="18.9197" x2="67.5159" y2="18.8825" gradientUnits="userSpaceOnUse">
<stop stop-color="white"/>
<stop offset="1" stop-color="#BDDDF0"/>
</linearGradient>
<linearGradient id="paint19_linear_4_1308" x1="69.4365" y1="18.5622" x2="71.6313" y2="18.5249" gradientUnits="userSpaceOnUse">
<stop stop-color="white"/>
<stop offset="1" stop-color="#BDDDF0"/>
</linearGradient>
<linearGradient id="paint20_linear_4_1308" x1="73.5548" y1="18.2046" x2="75.7496" y2="18.1673" gradientUnits="userSpaceOnUse">
<stop stop-color="white"/>
<stop offset="1" stop-color="#BDDDF0"/>
</linearGradient>
<linearGradient id="paint21_linear_4_1308" x1="77.6717" y1="17.8485" x2="79.8665" y2="17.8112" gradientUnits="userSpaceOnUse">
<stop stop-color="white"/>
<stop offset="1" stop-color="#BDDDF0"/>
</linearGradient>
<linearGradient id="paint22_linear_4_1308" x1="50.1866" y1="21.9804" x2="50.1307" y2="18.6428" gradientUnits="userSpaceOnUse">
<stop stop-color="#3D2245"/>
<stop offset="1" stop-color="#604155"/>
</linearGradient>
<linearGradient id="paint23_linear_4_1308" x1="54.3035" y1="21.6228" x2="54.2476" y2="18.2853" gradientUnits="userSpaceOnUse">
<stop stop-color="#3D2245"/>
<stop offset="1" stop-color="#604155"/>
</linearGradient>
<linearGradient id="paint24_linear_4_1308" x1="58.4218" y1="21.2653" x2="58.3659" y2="17.9291" gradientUnits="userSpaceOnUse">
<stop stop-color="#3D2245"/>
<stop offset="1" stop-color="#604155"/>
</linearGradient>
<linearGradient id="paint25_linear_4_1308" x1="62.5386" y1="20.9091" x2="62.4827" y2="17.5716" gradientUnits="userSpaceOnUse">
<stop stop-color="#3D2245"/>
<stop offset="1" stop-color="#604155"/>
</linearGradient>
<linearGradient id="paint26_linear_4_1308" x1="66.6555" y1="20.5516" x2="66.5996" y2="17.2154" gradientUnits="userSpaceOnUse">
<stop stop-color="#3D2245"/>
<stop offset="1" stop-color="#604155"/>
</linearGradient>
<linearGradient id="paint27_linear_4_1308" x1="70.7723" y1="20.194" x2="70.7164" y2="16.8579" gradientUnits="userSpaceOnUse">
<stop stop-color="#3D2245"/>
<stop offset="1" stop-color="#604155"/>
</linearGradient>
<linearGradient id="paint28_linear_4_1308" x1="74.8891" y1="19.8365" x2="74.8333" y2="16.5003" gradientUnits="userSpaceOnUse">
<stop stop-color="#3D2245"/>
<stop offset="1" stop-color="#604155"/>
</linearGradient>
<linearGradient id="paint29_linear_4_1308" x1="79.0074" y1="19.4789" x2="78.9516" y2="16.1427" gradientUnits="userSpaceOnUse">
<stop stop-color="#3D2245"/>
<stop offset="1" stop-color="#604155"/>
</linearGradient>
<linearGradient id="paint30_linear_4_1308" x1="94.5246" y1="14.2694" x2="96.26" y2="14.2399" gradientUnits="userSpaceOnUse">
<stop stop-color="#EBDCFF"/>
<stop offset="1" stop-color="#A7A3BA"/>
</linearGradient>
<linearGradient id="paint31_linear_4_1308" x1="99.9029" y1="12.1016" x2="105.337" y2="12.0093" gradientUnits="userSpaceOnUse">
<stop stop-color="#EBDCFF"/>
<stop offset="1" stop-color="#A7A3BA"/>
</linearGradient>
<linearGradient id="paint32_linear_4_1308" x1="10.9983" y1="11.6045" x2="27.9734" y2="11.3161" gradientUnits="userSpaceOnUse">
<stop stop-color="#A394B3"/>
<stop offset="1" stop-color="#8E7484"/>
</linearGradient>
<linearGradient id="paint33_linear_4_1308" x1="11.033" y1="9.32365" x2="21.7535" y2="9.14155" gradientUnits="userSpaceOnUse">
<stop stop-color="#A394B3"/>
<stop offset="1" stop-color="#8E7484"/>
</linearGradient>
<linearGradient id="paint34_linear_4_1308" x1="11.0031" y1="7.56371" x2="21.7236" y2="7.38161" gradientUnits="userSpaceOnUse">
<stop stop-color="#A394B3"/>
<stop offset="1" stop-color="#8E7484"/>
</linearGradient>
<linearGradient id="paint35_linear_4_1308" x1="20.2508" y1="7.77358" x2="33.7551" y2="7.54419" gradientUnits="userSpaceOnUse">
<stop stop-color="#E6E5FF"/>
<stop offset="1" stop-color="white"/>
</linearGradient>
<linearGradient id="paint36_linear_4_1308" x1="11.6882" y1="2.79268" x2="22.5691" y2="3.82072" gradientUnits="userSpaceOnUse">
<stop stop-color="#3D2245"/>
<stop offset="1" stop-color="#604155"/>
</linearGradient>
<linearGradient id="paint37_linear_4_1308" x1="0.530551" y1="5.04386" x2="21.9341" y2="4.68029" gradientUnits="userSpaceOnUse">
<stop stop-color="#3D2245"/>
<stop offset="1" stop-color="#604155"/>
</linearGradient>
<linearGradient id="paint38_linear_4_1308" x1="0.521023" y1="4.48114" x2="22.2184" y2="4.11258" gradientUnits="userSpaceOnUse">
<stop stop-color="#E6E5FF"/>
<stop offset="1" stop-color="#D9D8E7"/>
</linearGradient>
<linearGradient id="paint39_linear_4_1308" x1="4.02606" y1="4.49138" x2="21.4649" y2="4.19515" gradientUnits="userSpaceOnUse">
<stop stop-color="#E6E5FF"/>
<stop offset="1" stop-color="white"/>
</linearGradient>
<linearGradient id="paint40_linear_4_1308" x1="11.0891" y1="12.6296" x2="17.8492" y2="12.5148" gradientUnits="userSpaceOnUse">
<stop stop-color="#A394B3"/>
<stop offset="1" stop-color="#8E7484"/>
</linearGradient>
<linearGradient id="paint41_linear_4_1308" x1="24.1444" y1="1.56551" x2="27.6295" y2="1.50631" gradientUnits="userSpaceOnUse">
<stop stop-color="#E6E5FF"/>
<stop offset="1" stop-color="white"/>
</linearGradient>
<linearGradient id="paint42_linear_4_1308" x1="23.442" y1="9.14888" x2="34.4332" y2="8.96218" gradientUnits="userSpaceOnUse">
<stop/>
<stop offset="1" stop-color="#B0C9FF"/>
</linearGradient>
<linearGradient id="paint43_linear_4_1308" x1="24.1553" y1="23.9197" x2="43.1884" y2="23.5964" gradientUnits="userSpaceOnUse">
<stop stop-color="#A394B3"/>
<stop offset="1" stop-color="#8E7484"/>
</linearGradient>
<linearGradient id="paint44_linear_4_1308" x1="26.2119" y1="23.3813" x2="45.2926" y2="23.0572" gradientUnits="userSpaceOnUse">
<stop stop-color="#A394B3"/>
<stop offset="1" stop-color="#8E7484"/>
</linearGradient>
<linearGradient id="paint45_linear_4_1308" x1="13.9937" y1="19.1791" x2="112.667" y2="17.5029" gradientUnits="userSpaceOnUse">
<stop stop-color="#A394B3"/>
<stop offset="1" stop-color="#8E7484"/>
</linearGradient>
<linearGradient id="paint46_linear_4_1308" x1="28.4149" y1="20.8559" x2="45.3094" y2="20.569" gradientUnits="userSpaceOnUse">
<stop stop-color="#EBDCFF"/>
<stop offset="1" stop-color="#A7A3BA"/>
</linearGradient>
<linearGradient id="paint47_linear_4_1308" x1="39.4248" y1="20.3367" x2="47.0035" y2="19.7796" gradientUnits="userSpaceOnUse">
<stop stop-color="#EBDCFF"/>
<stop offset="1" stop-color="#A7A3BA"/>
</linearGradient>
<linearGradient id="paint48_linear_4_1308" x1="28.5734" y1="24.0674" x2="44.4721" y2="22.8989" gradientUnits="userSpaceOnUse">
<stop stop-color="#A394B3"/>
<stop offset="1" stop-color="#8E7484"/>
</linearGradient>
<linearGradient id="paint49_linear_4_1308" x1="41.5198" y1="21.7048" x2="41.4101" y2="15.1545" gradientUnits="userSpaceOnUse">
<stop stop-color="#E6E5FF"/>
<stop offset="1" stop-color="white"/>
</linearGradient>
<linearGradient id="paint50_linear_4_1308" x1="40.8754" y1="22.8629" x2="40.8571" y2="21.7705" gradientUnits="userSpaceOnUse">
<stop stop-color="#E6E5FF"/>
<stop offset="1" stop-color="white"/>
</linearGradient>
<linearGradient id="paint51_linear_4_1308" x1="41.2242" y1="19.9807" x2="46.8522" y2="19.567" gradientUnits="userSpaceOnUse">
<stop stop-color="#EBDCFF"/>
<stop offset="1" stop-color="#B6B9EF"/>
</linearGradient>
<linearGradient id="paint52_linear_4_1308" x1="44.1028" y1="23.4076" x2="43.9813" y2="16.1468" gradientUnits="userSpaceOnUse">
<stop stop-color="#533C56"/>
<stop offset="1" stop-color="#8E7484"/>
</linearGradient>
<linearGradient id="paint53_linear_4_1308" x1="41.8614" y1="20.0191" x2="45.106" y2="19.964" gradientUnits="userSpaceOnUse">
<stop stop-color="#3D2245"/>
<stop offset="1" stop-color="#604155"/>
</linearGradient>
<linearGradient id="paint54_linear_4_1308" x1="45.7874" y1="21.4036" x2="45.6884" y2="15.4921" gradientUnits="userSpaceOnUse">
<stop stop-color="#E6E5FF"/>
<stop offset="1" stop-color="white"/>
</linearGradient>
<linearGradient id="paint55_linear_4_1308" x1="28.6555" y1="17.5522" x2="41.8733" y2="17.3276" gradientUnits="userSpaceOnUse">
<stop stop-color="#E6E5FF"/>
<stop offset="1" stop-color="white"/>
</linearGradient>
<linearGradient id="paint56_linear_4_1308" x1="29.1234" y1="25.4204" x2="43.103" y2="25.1829" gradientUnits="userSpaceOnUse">
<stop/>
<stop offset="1" stop-color="#B0C9FF"/>
</linearGradient>
<linearGradient id="paint57_linear_4_1308" x1="41.8872" y1="21.5421" x2="45.8477" y2="21.4749" gradientUnits="userSpaceOnUse">
<stop stop-color="#A394B3"/>
<stop offset="1" stop-color="#8E7484"/>
</linearGradient>
<linearGradient id="paint58_linear_4_1308" x1="33.2529" y1="17.2914" x2="42.9576" y2="16.5782" gradientUnits="userSpaceOnUse">
<stop/>
<stop offset="1" stop-color="#B0C9FF"/>
</linearGradient>
<linearGradient id="paint59_linear_4_1308" x1="28.4797" y1="21.7507" x2="39.6898" y2="20.9268" gradientUnits="userSpaceOnUse">
<stop/>
<stop offset="1" stop-color="#B0C9FF"/>
</linearGradient>
<linearGradient id="paint60_linear_4_1308" x1="42.7256" y1="10.0215" x2="89.4862" y2="10.9714" gradientUnits="userSpaceOnUse">
<stop/>
<stop offset="1" stop-color="#B0C9FF"/>
</linearGradient>
<linearGradient id="paint61_linear_4_1308" x1="45.1465" y1="12.4226" x2="59.646" y2="12.1763" gradientUnits="userSpaceOnUse">
<stop stop-color="#A394B3"/>
<stop offset="1" stop-color="#8E7484"/>
</linearGradient>
<linearGradient id="paint62_linear_4_1308" x1="60.4236" y1="10.4543" x2="60.432" y2="10.4542" gradientUnits="userSpaceOnUse">
<stop stop-color="#A394B3"/>
<stop offset="1" stop-color="#8E7484"/>
</linearGradient>
<linearGradient id="paint63_linear_4_1308" x1="78.376" y1="24.2021" x2="83.5361" y2="24.1145" gradientUnits="userSpaceOnUse">
<stop stop-color="#E6E5FF"/>
<stop offset="1" stop-color="#E3FFED"/>
</linearGradient>
<linearGradient id="paint64_linear_4_1308" x1="70.8447" y1="25.3076" x2="91.1581" y2="24.9625" gradientUnits="userSpaceOnUse">
<stop stop-color="#E6E5FF"/>
<stop offset="1" stop-color="#E3FFED"/>
</linearGradient>
<linearGradient id="paint65_linear_4_1308" x1="80.0527" y1="25.8067" x2="108.599" y2="25.3218" gradientUnits="userSpaceOnUse">
<stop/>
<stop offset="1" stop-color="#B0C9FF"/>
</linearGradient>
<linearGradient id="paint66_linear_4_1308" x1="108.556" y1="22.7439" x2="108.603" y2="22.7431" gradientUnits="userSpaceOnUse">
<stop/>
<stop offset="1" stop-color="#B0C9FF"/>
</linearGradient>
<linearGradient id="paint67_linear_4_1308" x1="46.3076" y1="15.6469" x2="112.088" y2="14.5295" gradientUnits="userSpaceOnUse">
<stop stop-color="white"/>
<stop offset="1" stop-color="#BDDDF0"/>
</linearGradient>
<linearGradient id="paint68_linear_4_1308" x1="34.2163" y1="27.9944" x2="52.8102" y2="27.6786" gradientUnits="userSpaceOnUse">
<stop stop-color="#A394B3"/>
<stop offset="1" stop-color="#8E7484"/>
</linearGradient>
<linearGradient id="paint69_linear_4_1308" x1="15.2411" y1="29.5212" x2="79.5686" y2="28.4285" gradientUnits="userSpaceOnUse">
<stop stop-color="#A394B3"/>
<stop offset="1" stop-color="#8E7484"/>
</linearGradient>
<linearGradient id="paint70_linear_4_1308" x1="14.6386" y1="29.0747" x2="76.669" y2="28.021" gradientUnits="userSpaceOnUse">
<stop/>
<stop offset="1" stop-color="#B0C9FF"/>
</linearGradient>
<linearGradient id="paint71_linear_4_1308" x1="50.4763" y1="29.8731" x2="67.3765" y2="29.5861" gradientUnits="userSpaceOnUse">
<stop stop-color="#E6E5FF"/>
<stop offset="1" stop-color="#E3FFED"/>
</linearGradient>
<linearGradient id="paint72_linear_4_1308" x1="95.2241" y1="12.5332" x2="96.1684" y2="16.08" gradientUnits="userSpaceOnUse">
<stop/>
<stop offset="1" stop-color="#CCB381"/>
</linearGradient>
<linearGradient id="paint73_linear_4_1308" x1="98.6921" y1="11.8002" x2="99.5936" y2="15.1825" gradientUnits="userSpaceOnUse">
<stop/>
<stop offset="1" stop-color="#CCB381"/>
</linearGradient>
<linearGradient id="paint74_linear_4_1308" x1="50.7231" y1="12.3437" x2="59.6473" y2="12.525" gradientUnits="userSpaceOnUse">
<stop stop-color="#E6E5FF"/>
<stop offset="1" stop-color="#CDDBE0"/>
</linearGradient>
<linearGradient id="paint75_linear_4_1308" x1="73.1572" y1="28.2082" x2="83.8978" y2="28.0257" gradientUnits="userSpaceOnUse">
<stop stop-color="#A394B3"/>
<stop offset="1" stop-color="#8E7484"/>
</linearGradient>
<linearGradient id="paint76_linear_4_1308" x1="80.0542" y1="25.8943" x2="89.6529" y2="25.7312" gradientUnits="userSpaceOnUse">
<stop stop-color="#A394B3"/>
<stop offset="1" stop-color="#8E7484"/>
</linearGradient>
<linearGradient id="paint77_linear_4_1308" x1="90.1309" y1="23.3419" x2="112.587" y2="22.9604" gradientUnits="userSpaceOnUse">
<stop stop-color="#A394B3"/>
<stop offset="1" stop-color="#8E7484"/>
</linearGradient>
<linearGradient id="paint78_linear_4_1308" x1="72.3391" y1="23.0482" x2="112.75" y2="22.3618" gradientUnits="userSpaceOnUse">
<stop stop-color="#A394B3"/>
<stop offset="1" stop-color="#8E7484"/>
</linearGradient>
<linearGradient id="paint79_linear_4_1308" x1="86.5056" y1="22.6157" x2="112.747" y2="22.17" gradientUnits="userSpaceOnUse">
<stop stop-color="#A394B3"/>
<stop offset="1" stop-color="#8E7484"/>
</linearGradient>
<linearGradient id="paint80_linear_4_1308" x1="14.0195" y1="22.2256" x2="31.0637" y2="21.9361" gradientUnits="userSpaceOnUse">
<stop stop-color="#A394B3"/>
<stop offset="1" stop-color="#8E7484"/>
</linearGradient>
<linearGradient id="paint81_linear_4_1308" x1="14.018" y1="22.1367" x2="23.4035" y2="21.9772" gradientUnits="userSpaceOnUse">
<stop stop-color="#A394B3"/>
<stop offset="1" stop-color="#8E7484"/>
</linearGradient>
<linearGradient id="paint82_linear_4_1308" x1="39.3162" y1="26.0595" x2="60.9992" y2="25.6912" gradientUnits="userSpaceOnUse">
<stop stop-color="#A394B3"/>
<stop offset="1" stop-color="#8E7484"/>
</linearGradient>
<linearGradient id="paint83_linear_4_1308" x1="6.72127" y1="31.7072" x2="15.2758" y2="31.5619" gradientUnits="userSpaceOnUse">
<stop stop-color="#A394B3"/>
<stop offset="1" stop-color="#8E7484"/>
</linearGradient>
</defs>
</svg>
