<svg width="87" height="56" viewBox="0 0 87 56" fill="none" xmlns="http://www.w3.org/2000/svg">
<path d="M69.4518 8.49016C69.4518 8.49016 71.9541 6.46091 77.6056 6.89578L77.5792 15.2112C77.5792 15.2112 68.1397 14.6452 69.4518 8.49016Z" fill="#342B6E"/>
<path d="M69.4518 8.49016C69.4518 8.49016 71.9541 6.46091 77.6056 6.89578L77.6013 8.25389C75.9021 8.74886 72.9446 9.69256 71.9652 10.4817C71.3142 11.0098 70.9302 11.908 70.7012 12.7174C69.6619 11.7372 69.0527 10.3772 69.4578 8.48422L69.4518 8.49016Z" fill="#2F2763"/>
<path d="M77.6056 6.89578L77.5792 15.2112C77.5792 15.2112 76.0665 15.123 74.3347 14.6172C73.8611 13.6924 73.5733 12.4167 73.5778 11.011C73.5831 9.31931 74.0168 7.8196 74.6749 6.88649C75.5389 6.81775 76.5098 6.80891 77.6056 6.89578Z" fill="#972029"/>
<path d="M77.5796 15.104C76.165 15.0995 75.024 13.2824 75.0311 11.0454C75.0381 8.80835 76.1906 6.99852 77.6052 7.003C79.0198 7.00748 80.1608 8.82458 80.1537 11.0616C80.1466 13.2986 78.9941 15.1085 77.5796 15.104Z" fill="#4D2D6E"/>
<path d="M76.7331 7.76865C76.7462 7.39342 77.1403 7.09683 77.6228 7.11027C78.0993 7.11774 78.4795 7.43465 78.4664 7.80392C78.4533 8.17915 78.189 10.7575 77.7125 10.7501C77.236 10.7426 76.726 8.14389 76.7331 7.76865Z" fill="#9C9FCE"/>
<path d="M75.6705 10.3862C75.4745 10.2248 75.0052 9.83013 75.3226 9.28312C75.5202 8.94422 75.7358 8.59346 76.3769 9.28646C76.5431 9.46569 77.9744 10.8105 77.6281 11.0715C77.2818 11.3265 75.8666 10.5417 75.6706 10.3803L75.6705 10.3862Z" fill="#9C9FCE"/>
<path d="M79.5602 10.4104C79.7513 10.2562 80.18 10.3052 79.9269 9.3394C79.8328 8.96979 79.5598 8.65322 78.9322 9.32434C78.7708 9.49657 77.3789 10.7848 77.6937 11.0419C78.0146 11.305 79.3691 10.5647 79.5602 10.4104Z" fill="#9C9FCE"/>
<path d="M76.6055 14.2431C76.6043 14.6184 76.9905 14.9234 77.467 14.9249C77.9435 14.9264 78.3317 14.6239 78.3329 14.2486C78.3341 13.8733 77.9554 11.1976 77.4788 11.1961C77.0023 11.1946 76.6066 13.8679 76.6055 14.2431Z" fill="#9C9FCE"/>
<path d="M79.4301 11.9885C79.5903 12.1737 79.982 12.6157 79.5635 13.1207C79.3004 13.4356 79.0254 13.7504 78.5215 12.9864C78.3911 12.7894 77.2402 11.2847 77.6281 11.0715C78.0219 10.8583 79.2698 11.8034 79.4301 11.9885Z" fill="#9C9FCE"/>
<path d="M75.8162 11.4231C75.2732 11.6954 74.7609 11.7117 75.1992 12.5172C75.3768 12.8454 75.483 13.1614 76.2295 12.58C76.4205 12.4317 78.0383 11.3289 77.7771 11.0362C77.51 10.7375 76.0369 11.3166 75.8161 11.4291L75.8162 11.4231Z" fill="#9C9FCE"/>
<path d="M76.9014 11.0513C76.8997 11.5874 77.2498 12.0233 77.6787 12.0247C78.1076 12.0261 78.4604 11.5923 78.4621 11.0562C78.4638 10.5202 78.1137 10.0842 77.6848 10.0828C77.256 10.0815 76.9031 10.5152 76.9014 11.0513Z" fill="#812413"/>
<path d="M77.6908 10.0829C78.1197 10.0842 78.4638 10.5202 78.4621 11.0562C78.4606 11.5149 78.2033 11.8953 77.8575 11.9955C77.4286 11.9941 77.0845 11.5582 77.0862 11.0221C77.0876 10.5634 77.345 10.183 77.6908 10.0829Z" fill="#CE2409"/>
<path d="M77.4792 11.0531C77.4783 11.3569 77.6741 11.6018 77.9183 11.6025C78.1625 11.6033 78.3598 11.3597 78.3608 11.0559C78.3618 10.7521 78.166 10.5073 77.9218 10.5065C77.6775 10.5057 77.4802 10.7493 77.4792 11.0531Z" fill="#CE5638"/>
<g style="mix-blend-mode:screen" opacity="0.53">
<path d="M76.8089 13.9459C76.8076 14.3569 77.0865 14.6854 77.432 14.6865C77.7775 14.6876 78.0585 14.355 78.0598 13.9499C78.0611 13.5449 77.81 13.8121 77.4645 13.811C77.1191 13.8099 76.8042 13.5349 76.8029 13.9459L76.8089 13.9459Z" fill="#9C9FCE"/>
</g>
<g style="mix-blend-mode:screen" opacity="0.53">
<path d="M79.0824 12.6665C79.1533 12.8514 79.1588 13.0122 79.3258 12.9472C79.4868 12.8822 79.5649 12.68 79.494 12.501C79.4231 12.3161 79.2328 12.2202 79.0658 12.2852C78.9047 12.3502 79.0115 12.4876 79.0824 12.6665Z" fill="#9C9FCE"/>
</g>
<g style="mix-blend-mode:screen" opacity="0.53">
<path d="M76.5727 11.4017C76.5727 11.4017 75.4575 11.827 75.3734 12.0234C75.2894 12.2197 75.3539 12.5594 75.473 12.5598C75.5921 12.5601 75.6528 12.2148 75.9573 11.9954C76.2618 11.776 76.8107 11.4918 76.5727 11.4017Z" fill="#9C9FCE"/>
</g>
<path d="M77.6056 6.89578C79.0768 6.90044 80.2682 8.7627 80.2609 11.0619C80.2536 13.3612 79.0505 15.2159 77.5792 15.2112C76.1079 15.2065 74.9166 13.3383 74.9238 11.045C74.9311 8.75174 76.1283 6.8911 77.6056 6.89578ZM77.5799 14.9968C78.932 15.001 80.0396 13.2354 80.0465 11.0613C80.0534 8.8871 78.957 7.1145 77.6049 7.11022C76.2527 7.10593 75.1451 8.87155 75.1383 11.0457C75.1314 13.2199 76.2277 14.9925 77.5799 14.9968Z" fill="#85AFAF"/>
<path d="M63.535 16.5784C63.535 16.5784 66.0373 14.5492 71.6888 14.984L71.6624 23.2995C71.6624 23.2995 62.2229 22.7334 63.535 16.5784Z" fill="#342B6E"/>
<path d="M63.535 16.5784C63.535 16.5784 66.0373 14.5492 71.6888 14.984L71.6845 16.3421C69.9853 16.8371 67.0278 17.7808 66.0484 18.5699C65.3974 19.098 65.0134 19.9963 64.7844 20.8056C63.7451 19.8255 63.1359 18.4654 63.541 16.5725L63.535 16.5784Z" fill="#2F2763"/>
<path d="M71.6888 14.984L71.6624 23.2995C71.6624 23.2995 70.1497 23.2113 68.4179 22.7054C67.9443 21.7806 67.6565 20.505 67.661 19.0992C67.6663 17.4076 68.0999 15.9079 68.7581 14.9748C69.6221 14.906 70.593 14.8972 71.6888 14.984Z" fill="#972029"/>
<path d="M71.6627 23.1922C73.0745 23.1967 74.2298 21.3836 74.2369 19.1499C74.244 16.9161 73.1001 15.0957 71.6884 15.0913C70.2767 15.0868 69.1213 16.8999 69.1142 19.1336C69.1072 21.3674 70.251 23.1878 71.6627 23.1922Z" fill="#4D2D6E"/>
<path d="M70.8223 15.8569C70.8354 15.4817 71.2295 15.1851 71.7119 15.1986C72.1884 15.206 72.5687 15.517 72.5556 15.8922C72.5425 16.2674 72.2782 18.8458 71.8017 18.8384C71.3252 18.8309 70.8152 16.2322 70.8223 15.8569Z" fill="#9C9FCE"/>
<path d="M69.7597 18.4685C69.5637 18.3071 69.0943 17.9125 69.4118 17.3655C69.6094 17.0265 69.825 16.6758 70.4661 17.3688C70.6323 17.548 72.0636 18.8988 71.7173 19.1538C71.371 19.4148 69.9558 18.624 69.7597 18.4626L69.7597 18.4685Z" fill="#9C9FCE"/>
<path d="M73.6434 18.4928C73.8345 18.3385 74.2632 18.3875 74.0101 17.4217C73.916 17.0521 73.643 16.7355 73.0154 17.4067C72.854 17.5789 71.462 18.8671 71.7769 19.1242C72.0978 19.3873 73.4523 18.647 73.6434 18.4928Z" fill="#9C9FCE"/>
<path d="M70.6886 22.3254C70.6875 22.7007 71.0737 23.0057 71.5502 23.0072C72.0267 23.0087 72.4149 22.7062 72.4161 22.3309C72.4172 21.9556 72.0385 19.2799 71.562 19.2784C71.0855 19.2769 70.6898 21.9502 70.6886 22.3254Z" fill="#9C9FCE"/>
<path d="M73.5133 20.0768C73.6735 20.256 74.0652 20.704 73.6467 21.209C73.3836 21.5239 73.1086 21.8387 72.6047 21.0747C72.4743 20.8777 71.3234 19.3729 71.7113 19.1597C72.1051 18.9465 73.353 19.8916 73.5133 20.0768Z" fill="#9C9FCE"/>
<path d="M69.8993 19.5054C69.3564 19.7777 68.8441 19.794 69.2823 20.5995C69.46 20.9277 69.5662 21.2437 70.3126 20.6623C70.5037 20.514 72.1215 19.4112 71.8603 19.1185C71.5932 18.8198 70.1201 19.3989 69.8993 19.5114L69.8993 19.5054Z" fill="#9C9FCE"/>
<path d="M70.9846 19.1396C70.9829 19.6757 71.333 20.1116 71.7619 20.113C72.1907 20.1143 72.5436 19.6806 72.5453 19.1445C72.547 18.6084 72.1969 18.1725 71.768 18.1711C71.3391 18.1698 70.9863 18.6035 70.9846 19.1396Z" fill="#812413"/>
<path d="M71.774 18.1711C72.2029 18.1725 72.547 18.6084 72.5453 19.1445C72.5438 19.6032 72.2865 19.9836 71.9407 20.0837C71.5118 20.0824 71.1677 19.6465 71.1694 19.1104C71.1708 18.6517 71.4282 18.2713 71.774 18.1711Z" fill="#CE2409"/>
<path d="M71.5624 19.1414C71.5615 19.4452 71.7573 19.69 72.0015 19.6908C72.2457 19.6916 72.443 19.448 72.444 19.1442C72.445 18.8404 72.2492 18.5956 72.005 18.5948C71.7607 18.594 71.5634 18.8376 71.5624 19.1414Z" fill="#CE5638"/>
<g style="mix-blend-mode:screen" opacity="0.53">
<path d="M70.8981 22.0283C70.8968 22.4393 71.1757 22.7678 71.5212 22.7689C71.8666 22.77 72.1477 22.4373 72.1489 22.0322C72.1502 21.6272 71.8992 21.8944 71.5537 21.8933C71.2082 21.8923 70.8934 21.6172 70.8921 22.0283L70.8981 22.0283Z" fill="#9C9FCE"/>
</g>
<g style="mix-blend-mode:screen" opacity="0.53">
<path d="M73.1716 20.7488C73.2425 20.9337 73.2479 21.0946 73.4149 21.0296C73.576 20.9646 73.654 20.7623 73.5831 20.5833C73.5122 20.3985 73.3219 20.3026 73.1549 20.3676C72.9939 20.4326 73.1007 20.5699 73.1716 20.7488Z" fill="#9C9FCE"/>
</g>
<g style="mix-blend-mode:screen" opacity="0.53">
<path d="M70.6619 19.484C70.6619 19.484 69.5466 19.9094 69.4626 20.1057C69.3786 20.302 69.443 20.6417 69.5622 20.6421C69.6813 20.6425 69.742 20.2972 70.0465 20.0777C70.3509 19.8583 70.8998 19.5741 70.6619 19.484Z" fill="#9C9FCE"/>
</g>
<path d="M71.6888 14.984C73.1601 14.9887 74.3515 16.851 74.3442 19.1502C74.3369 21.4495 73.1397 23.3041 71.6625 23.2995C70.1852 23.2948 68.9998 21.4266 69.0071 19.1333C69.0143 16.84 70.2175 14.9794 71.6888 14.984ZM71.6631 23.085C73.0153 23.0893 74.1229 21.3237 74.1297 19.1495C74.1366 16.9754 73.0403 15.2028 71.6881 15.1985C70.336 15.1942 69.2284 16.9598 69.2215 19.134C69.2146 21.3081 70.311 23.0807 71.6631 23.085Z" fill="#85AFAF"/>
<path d="M22.0226 46.7961C22.0226 46.7961 25.0384 44.3455 31.8452 44.8734L31.8135 54.8984C31.8135 54.8984 20.4384 54.219 22.0225 46.802L22.0226 46.7961Z" fill="#342B6E"/>
<path d="M22.0226 46.7961C22.0226 46.7961 25.0384 44.3455 31.8452 44.8734L31.8401 46.5115C29.795 47.1066 26.2293 48.245 25.0469 49.2002C24.2646 49.8351 23.7965 50.9178 23.5254 51.8938C22.2723 50.7104 21.5388 49.07 22.0226 46.7961Z" fill="#2F2763"/>
<path d="M31.8512 44.8734L31.8195 54.8984C31.8195 54.8984 29.9971 54.7914 27.9082 54.1831C27.3399 53.0674 26.9874 51.5295 26.9927 49.8378C26.9992 47.7947 27.5172 45.9915 28.319 44.8682C29.3557 44.7881 30.5292 44.7739 31.8453 44.8794L31.8512 44.8734Z" fill="#972029"/>
<path d="M31.8199 54.7614C30.1158 54.756 28.7413 52.5675 28.7498 49.8732C28.7584 47.1789 30.1467 44.9991 31.8508 45.0045C33.5549 45.0099 34.9294 47.1984 34.9209 49.8927C34.9123 52.587 33.524 54.7668 31.8199 54.7614Z" fill="#4D2D6E"/>
<path d="M30.4553 45.5302C31.8417 46.0111 32.8838 47.9682 32.8764 50.3092C32.8704 52.2093 32.1742 53.8511 31.171 54.6521C29.7846 54.1712 28.7424 52.2141 28.7498 49.8732C28.7559 47.973 29.452 46.3312 30.4553 45.5302Z" fill="#392256"/>
<path d="M30.7995 45.9244C30.8129 45.4718 31.2905 45.1159 31.8683 45.1296C32.446 45.1434 32.8975 45.5201 32.8842 45.9668C32.8709 46.4194 32.5513 49.5278 31.9735 49.5141C31.3958 49.5003 30.7802 46.3771 30.7936 45.9244L30.7995 45.9244Z" fill="#9C9FCE"/>
<path d="M29.5208 49.0774C29.2891 48.8861 28.7188 48.4077 29.0961 47.7477C29.3357 47.3375 29.5932 46.9154 30.3649 47.7518C30.5667 47.9668 32.295 49.5925 31.877 49.9009C31.4591 50.2094 29.7525 49.2628 29.5208 49.0715L29.5208 49.0774Z" fill="#9C9FCE"/>
<path d="M34.2026 49.1101C34.4295 48.9262 34.9476 48.9874 34.6415 47.8189C34.5238 47.3718 34.2033 46.9955 33.4443 47.7973C33.2471 48.0051 31.5683 49.5545 31.9545 49.8714C32.3407 50.1824 33.9756 49.2941 34.2026 49.1101Z" fill="#9C9FCE"/>
<path d="M30.6438 53.7272C30.6423 54.1799 31.1058 54.5447 31.6836 54.5465C32.2614 54.5484 32.7272 54.1865 32.7286 53.7338C32.73 53.2811 32.2756 50.0571 31.6978 50.0553C31.12 50.0534 30.6452 53.2745 30.6438 53.7272Z" fill="#9C9FCE"/>
<path d="M34.0477 51.0098C34.2435 51.2308 34.7124 51.7684 34.2042 52.3744C33.8873 52.7546 33.5525 53.1348 32.9478 52.2155C32.7937 51.9768 31.3996 50.1675 31.877 49.9069C32.3484 49.6523 33.8518 50.7888 34.0477 51.0098Z" fill="#9C9FCE"/>
<path d="M29.6955 50.3289C29.0452 50.6544 28.4197 50.6763 28.9527 51.6489C29.1719 52.0427 29.2957 52.4243 30.1974 51.7184C30.4303 51.5404 32.3823 50.2123 32.0618 49.8539C31.7413 49.4955 29.964 50.1927 29.6955 50.3289Z" fill="#9C9FCE"/>
<path d="M31.0014 49.8803C30.9993 50.5296 31.4206 51.0491 31.9389 51.0508C32.4571 51.0524 32.8817 50.5296 32.8837 49.8863C32.8857 49.2429 32.4645 48.7174 31.9463 48.7158C31.428 48.7141 31.0034 49.237 31.0014 49.8803Z" fill="#812413"/>
<path d="M31.9522 48.7158C32.4704 48.7174 32.8857 49.2429 32.8837 49.8863C32.8819 50.4402 32.5707 50.8979 32.1593 51.0217C31.6411 51.02 31.2258 50.4945 31.2279 49.8512C31.2296 49.2973 31.5408 48.8396 31.9522 48.7158Z" fill="#CE2409"/>
<path d="M31.6983 49.8825C31.6972 50.2459 31.9345 50.5444 32.2264 50.5454C32.5182 50.5463 32.7574 50.2492 32.7586 49.8859C32.7597 49.5225 32.5224 49.2239 32.2305 49.223C31.9387 49.2221 31.6995 49.5192 31.6983 49.8825Z" fill="#CE5638"/>
<g style="mix-blend-mode:screen" opacity="0.53">
<path d="M30.8951 53.3646C30.8935 53.859 31.2318 54.2532 31.6488 54.2545C32.0657 54.2559 32.4065 53.8578 32.4081 53.3694C32.4096 52.881 32.1048 53.2017 31.6878 53.2003C31.2709 53.199 30.8967 52.8702 30.8951 53.3646Z" fill="#9C9FCE"/>
</g>
<g style="mix-blend-mode:screen" opacity="0.53">
<path d="M33.6341 51.8246C33.7227 52.0452 33.728 52.2418 33.9249 52.165C34.1217 52.0882 34.2118 51.8443 34.1231 51.6236C34.0345 51.4029 33.8085 51.289 33.6057 51.3658C33.4089 51.4426 33.5395 51.6039 33.6281 51.8245L33.6341 51.8246Z" fill="#9C9FCE"/>
</g>
<g style="mix-blend-mode:screen" opacity="0.53">
<path d="M30.607 50.296C30.607 50.296 29.2651 50.81 29.1631 51.042C29.0671 51.274 29.1372 51.6852 29.2802 51.6857C29.4231 51.6861 29.4959 51.2694 29.8601 51.0085C30.2243 50.7475 30.8866 50.4041 30.607 50.296Z" fill="#9C9FCE"/>
</g>
<path d="M31.8512 44.8734C33.6263 44.8791 35.0606 47.1293 35.0519 49.8931C35.0431 52.657 33.5945 54.8981 31.8194 54.8924C30.0444 54.8868 28.61 52.6366 28.6187 49.8728C28.6275 47.1089 30.0761 44.8678 31.8512 44.8734ZM31.8203 54.6363C33.4524 54.6415 34.7815 52.5132 34.7898 49.8923C34.7981 47.2714 33.4765 45.1347 31.8504 45.1296C30.2242 45.1244 28.8891 47.2527 28.8808 49.8736C28.8725 52.4945 30.1941 54.6312 31.8203 54.6363Z" fill="#85AFAF"/>
<path d="M11.9101 14.2466C11.9101 14.2466 16.1897 5.86724 20.4274 5.08843C23.0379 4.60826 23.5918 15.9098 23.5918 15.9098L11.9041 14.2466L11.9101 14.2466Z" fill="#697CE4"/>
<path d="M68.8688 21.4202C68.8688 21.4202 82.601 5.70241 77.9399 1.01166C73.2788 -3.67909 39.62 14.3999 39.62 14.3999L68.8688 21.4202Z" fill="#445094"/>
<path d="M41.935 13.1862C48.9575 9.55103 69.9402 -0.901952 76.4946 0.339932C77.7564 6.28272 66.559 19.0958 66.559 19.0958L41.935 13.1862Z" fill="#5E6FCC"/>
<path d="M68.8688 21.4202C68.8688 21.4202 87.7689 27.1806 86.2723 35.1459C84.7758 43.1112 54.2767 47.1723 36.8932 40.279C19.5097 33.3797 8.58209 24.9581 8.58209 24.9581C8.58209 24.9581 3.43568 9.8714 3.44199 7.88189C3.44829 5.89239 5.2733 3.29511 10.8082 6.69008C16.3371 10.085 21.7772 15.2131 25.2439 15.2241C28.7107 15.235 54.6208 8.12746 61.7184 9.01366C68.8159 9.89987 68.8688 21.4202 68.8688 21.4202Z" fill="#979CF0"/>
<path d="M3.44203 7.87594C3.44322 7.50068 3.51 7.10179 3.65417 6.72102C5.43543 12.2902 9.04488 19.9023 16.1819 25.2383C27.3599 33.6011 55.1809 41.9333 73.7885 42.2603C62.9876 44.6087 47.5066 44.4763 36.8992 40.273C19.5157 33.3737 8.58809 24.9521 8.58809 24.9521C8.58809 24.9521 3.44168 9.86547 3.44798 7.87596L3.44203 7.87594Z" fill="#8689D4"/>
<path d="M34.5884 40.1406C34.5884 40.1406 37.0907 38.1114 42.7422 38.5462L42.7158 46.8616C42.7158 46.8616 33.2763 46.2956 34.5884 40.1406Z" fill="#342B6E"/>
<path d="M34.5884 40.1406C34.5884 40.1406 37.0907 38.1114 42.7422 38.5462L42.7379 39.9103C41.0387 40.4053 38.0812 41.349 37.1018 42.1381C36.4508 42.6662 36.0667 43.5644 35.8378 44.3738C34.7985 43.3936 34.1893 42.0336 34.5944 40.1406L34.5884 40.1406Z" fill="#2F2763"/>
<path d="M42.7422 38.5462L42.7158 46.8616C42.7158 46.8616 41.2031 46.7735 39.4713 46.2676C38.9977 45.3428 38.7099 44.0672 38.7144 42.6614C38.7197 40.9698 39.1533 39.4701 39.8115 38.5369C40.6755 38.4682 41.6464 38.4594 42.7422 38.5462Z" fill="#972029"/>
<path d="M42.7162 46.7544C44.1279 46.7589 45.2832 44.9458 45.2903 42.7121C45.2974 40.4783 44.1535 38.6579 42.7418 38.6535C41.3301 38.649 40.1747 40.4621 40.1676 42.6958C40.1606 44.9296 41.3044 46.75 42.7162 46.7544Z" fill="#4D2D6E"/>
<path d="M41.8697 39.4191C41.8828 39.0439 42.2769 38.7473 42.7594 38.7607C43.2359 38.7682 43.6161 39.0791 43.603 39.4544C43.5899 39.8296 43.3256 42.408 42.8491 42.4005C42.3726 42.3931 41.8626 39.7943 41.8697 39.4191Z" fill="#9C9FCE"/>
<path d="M40.8071 42.0367C40.6111 41.8752 40.1418 41.4806 40.4592 40.9336C40.6568 40.5947 40.8724 40.2439 41.5135 40.9369C41.6797 41.1161 43.111 42.4669 42.7647 42.7219C42.4184 42.9829 41.0032 42.1922 40.8072 42.0307L40.8071 42.0367Z" fill="#9C9FCE"/>
<path d="M44.6968 42.0609C44.8879 41.9066 45.3166 41.9556 45.0635 40.9899C44.9694 40.6203 44.6964 40.3037 44.0688 40.9748C43.9074 41.147 42.5154 42.4352 42.8303 42.6983C43.1511 42.9614 44.5057 42.2211 44.6968 42.0669L44.6968 42.0609Z" fill="#9C9FCE"/>
<path d="M41.7421 45.8936C41.7409 46.2688 42.1271 46.5739 42.6036 46.5754C43.0801 46.5769 43.4683 46.2743 43.4695 45.8991C43.4707 45.5238 43.0919 42.848 42.6154 42.8465C42.1389 42.845 41.7432 45.5183 41.7421 45.8936Z" fill="#9C9FCE"/>
<path d="M44.5667 43.639C44.7269 43.8182 45.1186 44.2662 44.7001 44.7712C44.437 45.0861 44.162 45.4009 43.6581 44.6368C43.5277 44.4399 42.3768 42.9351 42.7647 42.7219C43.1585 42.5087 44.4064 43.4538 44.5667 43.639Z" fill="#9C9FCE"/>
<path d="M40.9528 43.0736C40.4098 43.3459 39.8975 43.3621 40.3358 44.1676C40.5134 44.4958 40.6196 44.8119 41.3661 44.2305C41.5571 44.0822 43.1749 42.9794 42.9137 42.6866C42.6466 42.388 41.1735 42.9671 40.9527 43.0795L40.9528 43.0736Z" fill="#9C9FCE"/>
<path d="M42.038 42.7017C42.0363 43.2378 42.3864 43.6738 42.8153 43.6751C43.2441 43.6765 43.597 43.2428 43.5987 42.7067C43.6004 42.1706 43.2503 41.7346 42.8214 41.7333C42.3926 41.7319 42.0397 42.1657 42.038 42.7017Z" fill="#812413"/>
<path d="M42.8274 41.7333C43.2563 41.7347 43.6004 42.1706 43.5987 42.7067C43.5972 43.1654 43.3399 43.5458 42.9941 43.6459C42.5652 43.6446 42.2211 43.2086 42.2228 42.6725C42.2242 42.2139 42.4816 41.8335 42.8274 41.7333Z" fill="#CE2409"/>
<path d="M42.6158 42.7036C42.6149 43.0074 42.8107 43.2522 43.0549 43.253C43.2991 43.2538 43.4964 43.0102 43.4974 42.7064C43.4984 42.4026 43.3026 42.1577 43.0584 42.157C42.8141 42.1562 42.6168 42.3998 42.6158 42.7036Z" fill="#CE5638"/>
<g style="mix-blend-mode:screen" opacity="0.53">
<path d="M41.9515 45.5904C41.9502 46.0015 42.2291 46.33 42.5746 46.331C42.9201 46.3321 43.2011 45.9995 43.2024 45.5944C43.2036 45.1894 42.9526 45.4566 42.6071 45.4555C42.2616 45.4544 41.9468 45.1854 41.9455 45.5904L41.9515 45.5904Z" fill="#9C9FCE"/>
</g>
<g style="mix-blend-mode:screen" opacity="0.53">
<path d="M44.225 44.311C44.2959 44.4959 44.3013 44.6568 44.4683 44.5918C44.6294 44.5267 44.7075 44.3245 44.6365 44.1455C44.5656 43.9607 44.3753 43.8648 44.2083 43.9297C44.0473 43.9948 44.1541 44.1321 44.225 44.311Z" fill="#9C9FCE"/>
</g>
<g style="mix-blend-mode:screen" opacity="0.53">
<path d="M41.7094 43.0462C41.7094 43.0462 40.5941 43.4715 40.5101 43.6678C40.4261 43.8642 40.4905 44.2039 40.6097 44.2043C40.7288 44.2046 40.7895 43.8593 41.0939 43.6399C41.3984 43.4264 41.9473 43.1363 41.7094 43.0462Z" fill="#9C9FCE"/>
</g>
<path d="M42.7422 38.5462C44.2135 38.5509 45.4049 40.4191 45.3976 42.7124C45.3903 45.0057 44.1931 46.8663 42.7159 46.8616C41.2386 46.857 40.0532 44.9947 40.0605 42.6955C40.0678 40.3962 41.265 38.5416 42.7422 38.5462ZM42.7165 46.6472C44.0687 46.6515 45.1763 44.8859 45.1832 42.7117C45.19 40.5376 44.0937 38.765 42.7415 38.7607C41.3894 38.7564 40.2818 40.522 40.2749 42.6962C40.268 44.8703 41.3644 46.6429 42.7165 46.6472Z" fill="#85AFAF"/>
<path d="M84.3771 29.8504C84.7451 30.2507 85.018 30.6089 85.3322 31.0805C78.0369 38.0803 50.6896 41.925 34.4476 35.7263C22.9002 31.1448 13.3513 25.6403 7.33713 21.2193C7.08345 20.4441 6.80021 19.5974 6.5171 18.7089C11.3967 22.1257 22.8544 28.6905 35.2944 33.5488C50.7866 39.5188 78.0617 35.8883 84.389 29.8504L84.3771 29.8504Z" fill="#972029"/>
<path d="M35.2884 33.5548L35.3241 33.5668C35.4404 34.4547 35.5865 35.3367 35.7565 36.201C35.3103 36.0507 34.8759 35.8944 34.4476 35.7322C22.9002 31.1507 13.3512 25.6463 7.3371 21.2253C7.08342 20.4501 6.80018 19.6033 6.51708 18.7149C11.3967 22.1316 22.8544 28.6964 35.2943 33.5548L35.2884 33.5548Z" fill="#781921"/>
<path d="M58.5883 13.6797C62.1303 12.4996 63.7903 11.2063 64.5265 10.1007C68.871 13.1941 68.8688 21.4202 68.8688 21.4202C65.9114 26.0868 56.3805 28.0462 51.7005 27.4297C47.0265 26.8073 46.7899 18.7532 47.7498 16.5939C48.7097 14.4347 50.0911 16.512 58.5823 13.6857L58.5883 13.6797Z" fill="#5B538A"/>
<g style="mix-blend-mode:screen" opacity="0.24">
<path d="M52.7605 27.5224C52.7605 27.5224 52.826 27.5226 52.8379 27.5227C57.7753 27.7408 66.1329 25.7361 68.8688 21.4202C68.8688 21.4202 68.8662 18.4717 67.9346 15.4427C66.7015 15.4865 65.331 15.637 64.2997 15.8839C60.401 16.8246 55.6581 22.9271 52.7545 27.5164L52.7605 27.5224Z" fill="#5B538A"/>
</g>
<path d="M47.7558 16.588C48.7157 14.4288 50.097 16.5061 58.5883 13.6797C62.1303 12.4996 63.7903 11.2063 64.5265 10.1007C64.9544 10.4059 65.1682 10.621 65.1682 10.621C64.4379 11.7266 62.7241 13.0912 59.1821 14.2713C50.6848 17.1036 49.3095 15.0204 48.3496 17.1796C47.6117 18.8392 47.5835 23.9737 49.7257 26.5478C46.9928 24.2697 46.9638 18.3904 47.7618 16.588L47.7558 16.588Z" fill="#CBD0F2"/>
<path d="M36.9609 20.8009C36.9563 22.2603 38.1379 23.4434 39.5913 23.448C41.0447 23.4526 42.2338 22.277 42.2385 20.8176C42.2431 19.3582 41.0615 18.1751 39.6081 18.1705C38.1546 18.1659 36.9655 19.3475 36.9609 20.8009Z" fill="#515497"/>
<path d="M39.5909 23.5791C41.1218 23.5839 42.3647 22.3429 42.3695 20.818C42.3744 19.2931 41.1334 18.0443 39.6085 18.0394C38.0836 18.0346 36.8347 19.2756 36.8299 20.8005C36.825 22.3254 38.066 23.5742 39.5909 23.5791ZM39.6077 18.2956C40.9896 18.2999 42.1178 19.4293 42.1134 20.8172C42.109 22.2051 40.9796 23.3273 39.5917 23.3229C38.2038 23.3185 37.0816 22.1892 37.086 20.8013C37.0904 19.4134 38.2198 18.2912 39.6077 18.2956Z" fill="#CBD0F2"/>
<path d="M29.0257 21.0736C29.022 22.2649 29.9839 23.2329 31.1752 23.2367C32.3665 23.2405 33.3345 22.2786 33.3383 21.0872C33.3421 19.8959 32.3802 18.9279 31.1889 18.9241C29.9975 18.9203 29.0295 19.8823 29.0257 21.0736Z" fill="#515497"/>
<path d="M31.1748 23.3677C32.4376 23.3717 33.4654 22.3505 33.4694 21.0877C33.4734 19.8249 32.4521 18.7971 31.1893 18.7931C29.9265 18.7891 28.8987 19.8104 28.8947 21.0732C28.8907 22.336 29.912 23.3637 31.1748 23.3677ZM31.1885 19.0492C32.3083 19.0528 33.2168 19.967 33.2132 21.0868C33.2097 22.2067 32.2954 23.1152 31.1756 23.1116C30.0558 23.1081 29.1473 22.1938 29.1508 21.074C29.1544 19.9541 30.0686 19.0457 31.1885 19.0492Z" fill="#CBD0F2"/>
<path d="M22.886 20.5716C22.8832 21.477 23.6135 22.212 24.5189 22.2149C25.4243 22.2178 26.1593 21.4874 26.1622 20.582C26.165 19.6766 25.4347 18.9416 24.5293 18.9388C23.6239 18.9359 22.8889 19.6662 22.886 20.5716Z" fill="#515497"/>
<path d="M24.5185 22.3459C25.4954 22.349 26.2901 21.5593 26.2932 20.5824C26.2963 19.6055 25.5066 18.8108 24.5297 18.8077C23.5528 18.8046 22.7581 19.5943 22.755 20.5712C22.7519 21.5481 23.5416 22.3428 24.5185 22.3459ZM24.5289 19.0698C25.3628 19.0724 26.0338 19.7536 26.0311 20.5816C26.0285 21.4096 25.3473 22.0865 24.5193 22.0838C23.6914 22.0812 23.0145 21.4 23.0171 20.572C23.0197 19.7441 23.7009 19.0672 24.5289 19.0698Z" fill="#CBD0F2"/>
<path d="M18.3855 19.7234C18.3832 20.4501 18.971 21.0477 19.7037 21.05C20.4363 21.0523 21.0279 20.4645 21.0302 19.7318C21.0326 18.9992 20.4447 18.4076 19.7121 18.4053C18.9794 18.4029 18.3878 18.9908 18.3855 19.7234Z" fill="#515497"/>
<path d="M19.7033 21.1751C20.5015 21.1776 21.1587 20.5304 21.1613 19.7263C21.1638 18.9221 20.5166 18.2708 19.7125 18.2683C18.9083 18.2657 18.263 18.9129 18.2604 19.7171C18.2579 20.5212 18.9051 21.1726 19.7033 21.1751ZM19.7116 18.5363C20.3669 18.5384 20.9013 19.0762 20.8992 19.7314C20.8971 20.3866 20.3593 20.921 19.7041 20.9189C19.0489 20.9169 18.5145 20.3791 18.5165 19.7239C18.5186 19.0686 19.0564 18.5342 19.7116 18.5363Z" fill="#CBD0F2"/>
<path d="M18.0752 21.7596C18.0752 21.7596 7.38253 27.5573 2.56014 26.7677C-2.26226 25.978 6.34473 18.5833 6.34473 18.5833C6.34473 18.5833 20.1687 17.1558 18.0752 21.7596Z" fill="#929FE4"/>
<path d="M2.56013 26.7736C0.464465 26.4334 0.904332 24.8444 2.06526 23.1623C1.66373 23.9295 1.38608 25.0782 2.8676 25.6131C4.96788 26.3762 15.1782 20.5532 17.2132 19.3683C18.1586 19.8836 18.5851 20.6414 18.0812 21.7597C18.0812 21.7597 7.3885 27.5573 2.5661 26.7677L2.56013 26.7736Z" fill="#4E5BA8"/>
<path d="M60.3725 10.7904C60.1159 10.9505 55.0384 13.603 48.2148 14.6238C41.3912 15.6386 32.8135 17.5354 32.8194 15.6769C32.8253 13.8185 63.1719 9.00636 60.3725 10.7904Z" fill="#BBC0FF"/>
<path d="M40.5294 28.1746C40.5294 28.1746 48.1457 28.8897 48.918 31.4059C49.6904 33.9221 48.3814 37.206 48.3814 37.206C48.3814 37.206 22.9787 53.3634 9.12747 52.1043C9.12747 52.1043 6.59522 52.3167 6.60181 50.2378C6.61717 45.3891 28.4066 28.4817 28.4066 28.4817C28.4066 28.4817 35.7431 27.26 40.5294 28.1746Z" fill="#697CE4"/>
<path opacity="0.42" d="M40.3116 29.2104C40.3116 29.2104 46.2855 29.4259 45.5639 31.568C44.8423 33.7101 16.2164 48.1656 13.7552 46.6627C11.2939 45.1597 27.7716 29.6234 30.7632 29.1801C33.7549 28.7369 40.3116 29.2104 40.3116 29.2104Z" fill="#929FE4"/>
<path opacity="0.42" d="M41.4062 31.5548C41.4062 31.5548 36.1722 36.6014 33.3198 34.4539C30.4674 32.3005 33.8496 30.8161 36.5138 30.3063C39.1781 29.7965 42.4716 29.938 41.4003 31.5548L41.4062 31.5548Z" fill="#BBC0FF"/>
<path d="M26.49 44.9339C29.7651 43.4015 32.9987 41.7856 36.2442 40.1935C43.5465 36.6069 47.2494 33.545 48.8471 31.227C48.8708 31.2866 48.9004 31.3403 48.918 31.4059C49.6904 33.922 48.3814 37.206 48.3814 37.206C48.3814 37.206 23.2119 53.0782 9.09558 52.7713C7.75542 52.7433 6.59721 51.6912 6.60181 50.2378C6.60383 49.6005 6.98775 48.7499 7.64612 47.7572C7.16132 48.4883 6.05173 50.8913 7.71924 51.0038C11.0662 51.2348 21.7832 47.1408 26.496 44.9399L26.49 44.9339Z" fill="#5564B8"/>
<path d="M9.09557 52.7714C7.7554 52.7433 6.59719 51.6912 6.6018 50.2378C6.60376 49.6183 6.96971 48.7975 7.59224 47.8404C7.08334 48.6549 6.10531 50.8974 7.71922 51.0038C10.7148 51.2099 19.6303 47.9441 24.8436 45.6792C23.8736 47.2606 22.8502 48.7882 21.7733 50.268C17.2235 51.8202 12.7884 52.8486 9.10154 52.7654L9.09557 52.7714Z" fill="#4E5BA8"/>
<path d="M7.59225 47.8345C7.59225 47.8345 7.62817 47.775 7.64612 47.7512C7.62815 47.781 7.61021 47.8047 7.59225 47.8345Z" fill="#5564B8"/>
<path d="M70.8943 23.2196C70.8943 23.2196 80.5721 25.6687 77.7517 28.4653C74.9372 31.262 58.0538 30.1006 58.0538 30.1006C58.0538 30.1006 73.6197 25.9623 70.8943 23.2196Z" fill="#BBC0FF"/>
<path d="M8.94316 6.89265C8.94316 6.89265 21.2574 13.8414 20.3491 14.7439C19.4409 15.6405 19.3102 15.521 16.9051 15.0845C14.5059 14.648 7.71425 7.47251 8.94316 6.89265Z" fill="#BBC0FF"/>
<path d="M43.2356 35.0929C43.235 35.3014 43.4012 35.4687 43.6037 35.4694C43.8063 35.47 43.9795 35.3038 43.9802 35.0953C43.9809 34.8868 43.8146 34.7195 43.6061 34.7188C43.3976 34.7182 43.2363 34.8844 43.2356 35.0929Z" fill="#515497"/>
<path d="M38.4314 37.9607C38.4308 38.1514 38.5852 38.3067 38.7758 38.3073C38.9664 38.3079 39.1218 38.1535 39.1224 37.9629C39.123 37.7723 38.9686 37.617 38.778 37.6164C38.5874 37.6157 38.432 37.7701 38.4314 37.9607Z" fill="#515497"/>
<path d="M32.555 40.8371C32.5545 40.9979 32.6851 41.1293 32.8459 41.1298C33.0068 41.1304 33.1382 40.9997 33.1387 40.8389C33.1392 40.6781 33.0086 40.5466 32.8478 40.5461C32.6869 40.5456 32.5555 40.6762 32.555 40.8371Z" fill="#515497"/>
</svg>
