<svg width="248" height="115" viewBox="0 0 248 115" fill="none" xmlns="http://www.w3.org/2000/svg">
<path d="M186.739 58.5051C186.562 64.3291 191.13 69.1922 196.954 69.3843C202.779 69.5617 207.642 64.9942 207.834 59.1703C208.012 53.3464 203.444 48.4833 197.634 48.2911C191.81 48.1138 186.946 52.6812 186.754 58.4904L186.739 58.5051Z" fill="#B52522"/>
<path d="M188.114 58.5495C187.951 63.6048 191.928 67.847 196.984 68.0096C202.04 68.1722 206.282 64.196 206.445 59.1407C206.608 54.0855 202.631 49.8432 197.575 49.6806C192.519 49.518 188.277 53.4942 188.114 58.5495Z" fill="#2F3957"/>
<path d="M197.575 49.4441C195.062 49.3554 192.667 50.2718 190.849 51.9865C189.016 53.7012 187.966 56.0366 187.892 58.5495C187.73 63.723 191.81 68.0835 196.984 68.2461C197.087 68.2461 197.191 68.2461 197.279 68.2461C202.32 68.2461 206.504 64.2256 206.667 59.1407C206.829 53.9672 202.749 49.6067 197.575 49.4441ZM196.999 67.7731C192.076 67.6105 188.188 63.4865 188.35 58.5495C188.424 56.1697 189.43 53.9524 191.174 52.3117C192.918 50.671 195.195 49.8284 197.575 49.8875C199.955 49.9614 202.173 50.9666 203.814 52.7108C205.454 54.455 206.312 56.7314 206.223 59.1112C206.061 64.0334 201.921 67.921 196.999 67.7584V67.7731Z" fill="#CE2409"/>
<path d="M202.268 50.6359L190.244 65.6263L191.317 66.4864L203.34 51.496L202.268 50.6359Z" fill="#B52522"/>
<path d="M190.91 51.4403L190.001 52.4714L204.66 65.3942L205.57 64.3631L190.91 51.4403Z" fill="#B52522"/>
<path d="M206.991 56.2616L187.357 60.3057L187.635 61.6521L207.268 57.6081L206.991 56.2616Z" fill="#B52522"/>
<path d="M197.723 68.4679H199.083L196.91 48.705L195.535 48.8676L197.723 68.4679Z" fill="#B52522"/>
<path d="M194.53 58.7417C194.485 60.2641 195.668 61.5354 197.191 61.5797C198.713 61.624 199.985 60.4415 200.029 58.919C200.073 57.3965 198.891 56.1253 197.368 56.081C195.845 56.0366 194.574 57.2192 194.53 58.7417Z" fill="#CE2409"/>
<path d="M195.698 58.786C195.668 59.6581 196.348 60.3824 197.22 60.412C198.092 60.4415 198.817 59.7616 198.846 58.8895C198.876 58.0174 198.196 57.2931 197.324 57.2635C196.452 57.2339 195.727 57.9139 195.698 58.786Z" fill="#FF2D0B"/>
<path d="M208.884 48.3798C208.707 54.2037 213.275 59.0668 219.084 59.259C224.909 59.4363 229.772 54.8689 229.965 49.0597C230.142 43.2358 225.574 38.3727 219.764 38.1806C213.94 38.0032 209.076 42.5707 208.884 48.3946V48.3798Z" fill="#B52522"/>
<path d="M210.259 48.4241C210.096 53.4794 214.073 57.7217 219.129 57.8843C224.185 58.0469 228.427 54.0707 228.59 49.0154C228.752 43.9601 224.776 39.7178 219.72 39.5552C214.664 39.3926 210.422 43.3689 210.259 48.4241Z" fill="#2F3957"/>
<path d="M219.72 39.3188C217.207 39.2301 214.827 40.1465 212.994 41.8612C211.161 43.5758 210.111 45.9113 210.037 48.4241C209.875 53.5977 213.955 57.9582 219.129 58.1208C219.232 58.1208 219.336 58.1208 219.424 58.1208C224.465 58.1208 228.664 54.1002 228.812 49.0154C228.974 43.8419 224.894 39.4813 219.705 39.3188H219.72ZM219.144 57.6478C214.221 57.4852 210.333 53.3612 210.495 48.4241C210.569 46.0443 211.575 43.8271 213.319 42.1864C215.063 40.5456 217.34 39.7031 219.72 39.7622C222.115 39.8361 224.318 40.8412 225.958 42.5855C227.599 44.3297 228.457 46.606 228.383 48.9858C228.22 53.9081 224.081 57.7956 219.158 57.633L219.144 57.6478Z" fill="#CE2409"/>
<path d="M224.411 40.4933L212.387 55.4837L213.46 56.3438L225.483 41.3534L224.411 40.4933Z" fill="#B52522"/>
<path d="M213.052 41.3051L212.143 42.3363L226.803 55.2591L227.712 54.2279L213.052 41.3051Z" fill="#B52522"/>
<path d="M229.135 46.134L209.502 50.1781L209.779 51.5245L229.413 47.4805L229.135 46.134Z" fill="#B52522"/>
<path d="M219.868 58.4164H221.228L219.04 38.5797L217.68 38.7422L219.868 58.4164Z" fill="#B52522"/>
<path d="M216.675 48.6163C216.63 50.1388 217.813 51.41 219.336 51.4543C220.858 51.4987 222.13 50.3162 222.174 48.7937C222.218 47.2712 221.036 46 219.513 45.9556C217.99 45.9113 216.719 47.0938 216.675 48.6163Z" fill="#CE2409"/>
<path d="M217.843 48.6606C217.813 49.5327 218.493 50.257 219.365 50.2866C220.237 50.3162 220.962 49.6362 220.991 48.7641C221.021 47.892 220.341 47.1677 219.469 47.1381C218.597 47.1086 217.872 47.7885 217.843 48.6606Z" fill="#FF2D0B"/>
<path d="M25.3676 98.7108C25.1755 104.623 29.8173 109.56 35.7305 109.753C41.6437 109.945 46.5813 105.303 46.7735 99.3907C46.9656 93.4781 42.3238 88.5411 36.4106 88.349C30.4973 88.1568 25.5598 92.7982 25.3676 98.7108Z" fill="#B52522"/>
<path d="M26.7572 98.7551C26.5946 103.899 30.6304 108.2 35.7749 108.363C40.9194 108.526 45.2212 104.49 45.3839 99.3464C45.5465 94.2024 41.5107 89.901 36.3662 89.7384C31.2217 89.5758 26.9199 93.6112 26.7572 98.7551Z" fill="#2F3957"/>
<path d="M36.3662 89.5167C33.8235 89.428 31.3843 90.3592 29.5364 92.1035C27.6738 93.8477 26.6094 96.2127 26.5207 98.7551C26.3581 104.017 30.4973 108.437 35.7601 108.6C35.8636 108.6 35.967 108.6 36.0705 108.6C41.2002 108.6 45.443 104.52 45.6056 99.3612C45.7682 94.099 41.6289 89.6793 36.3662 89.5167ZM35.7749 108.127C30.7782 107.964 26.8311 103.766 26.9937 98.7699C27.0677 96.3457 28.0877 94.099 29.8616 92.4434C31.6356 90.7879 33.9418 89.9158 36.3662 89.9897C38.7906 90.0636 41.0376 91.0835 42.6933 92.8573C44.349 94.6311 45.2212 96.937 45.1473 99.3612C44.9847 104.372 40.7715 108.304 35.7896 108.156L35.7749 108.127Z" fill="#CE2409"/>
<path d="M41.1297 90.7347L28.921 105.956L30.0166 106.834L42.2253 91.6133L41.1297 90.7347Z" fill="#B52522"/>
<path d="M29.6175 91.5288L28.6876 92.5812L43.5552 105.715L44.485 104.663L29.6175 91.5288Z" fill="#B52522"/>
<path d="M45.9274 96.4415L26.0043 100.545L26.2876 101.921L46.2107 97.8169L45.9274 96.4415Z" fill="#B52522"/>
<path d="M36.5436 109.206L37.948 108.969L35.6862 88.7776L34.2966 88.9254L36.5436 109.206Z" fill="#B52522"/>
<path d="M33.2766 98.962C33.2322 100.499 34.4444 101.8 35.9819 101.844C37.5193 101.889 38.8202 100.677 38.8646 99.1394C38.9089 97.6021 37.6967 96.3014 36.1593 96.257C34.6218 96.2127 33.3209 97.4248 33.2766 98.962Z" fill="#CE2409"/>
<path d="M34.4592 99.0064C34.4297 99.8933 35.1245 100.632 36.0114 100.662C36.8984 100.691 37.6376 99.9968 37.6671 99.1099C37.6967 98.223 37.0019 97.4839 36.1149 97.4543C35.2279 97.4248 34.4888 98.1195 34.4592 99.0064Z" fill="#FF2D0B"/>
<path d="M55.4511 94.7346C55.2737 100.558 59.8417 105.422 65.6514 105.614C71.4759 105.791 76.3395 101.224 76.5317 95.4145C76.7091 89.5906 72.1411 84.7275 66.3314 84.5353C60.5069 84.358 55.6433 88.9254 55.4511 94.7346Z" fill="#B52522"/>
<path d="M56.8259 94.7789C56.6633 99.8342 60.6399 104.076 65.6957 104.239C70.7515 104.402 74.9943 100.425 75.1569 95.3701C75.3195 90.3149 71.3429 86.0726 66.2871 85.91C61.2313 85.7474 56.9885 89.7236 56.8259 94.7789Z" fill="#2F3957"/>
<path d="M66.2871 85.6735C63.7739 85.5848 61.3939 86.5013 59.5608 88.2159C57.7277 89.9306 56.6781 92.2661 56.6042 94.7789C56.4416 99.9524 60.5217 104.313 65.6957 104.476C65.7992 104.476 65.9027 104.476 65.9914 104.476C71.0324 104.476 75.216 100.455 75.3786 95.3702C75.5412 90.1967 71.4611 85.8361 66.2723 85.6735H66.2871ZM65.7105 104.003C60.7878 103.84 56.8998 99.7159 57.0625 94.7789C57.1364 92.3991 58.1416 90.1819 59.886 88.5411C61.6304 86.9004 63.907 86.0578 66.2871 86.117C68.6819 86.1909 70.8846 87.196 72.5255 88.9402C74.1664 90.6844 75.0238 92.9608 74.9499 95.3406C74.7873 100.263 70.6481 104.15 65.7253 103.988L65.7105 104.003Z" fill="#CE2409"/>
<path d="M70.9743 86.8589L58.9506 101.849L60.0231 102.709L72.0468 87.7189L70.9743 86.8589Z" fill="#B52522"/>
<path d="M59.6243 87.6885L58.7151 88.7197L73.3747 101.642L74.2839 100.611L59.6243 87.6885Z" fill="#B52522"/>
<path d="M75.7049 92.4976L56.0714 96.5416L56.3488 97.888L75.9823 93.844L75.7049 92.4976Z" fill="#B52522"/>
<path d="M66.4497 104.801L67.8097 104.476L65.6218 84.9492L64.247 85.097L66.4497 104.801Z" fill="#B52522"/>
<path d="M63.2417 94.9859C63.1974 96.5083 64.38 97.7796 65.9027 97.8239C67.4253 97.8682 68.6967 96.6857 68.741 95.1632C68.7854 93.6407 67.6027 92.3695 66.0801 92.3252C64.5574 92.2808 63.2861 93.4634 63.2417 94.9859Z" fill="#CE2409"/>
<path d="M64.4096 95.0302C64.3801 95.9023 65.0601 96.6266 65.9323 96.6562C66.8045 96.6857 67.5288 96.0058 67.5584 95.1337C67.588 94.2616 66.9079 93.5373 66.0358 93.5077C65.1636 93.4781 64.4392 94.1581 64.4096 95.0302Z" fill="#FF2D0B"/>
<path d="M155.739 36.6285L246.507 14.7963C246.507 14.7963 247.231 16.0083 247.675 16.8361C254.593 29.7551 148.88 70.1382 148.88 70.1382L155.739 36.6285Z" fill="#AEAF9E"/>
<path d="M155.739 36.6285C155.739 36.6285 237.149 4.70051 246.285 14.5154C255.421 24.3303 147.727 68.2313 147.727 68.2313L155.739 36.6285Z" fill="#CBCCBE"/>
<path d="M89.0085 55.0166L-6.10352e-05 83.1901C-6.10352e-05 83.1901 -6.10352e-05 84.5943 0.044288 85.5403C0.798222 100.174 112.188 80.1599 112.188 80.1599L89.0085 55.0166Z" fill="#AEAF9E"/>
<path d="M89.0085 55.0167C89.0085 55.0167 2.79395 69.7243 0.0443052 82.8355C-2.70534 95.9467 112.188 77.928 112.188 77.928L89.0085 55.0019V55.0167Z" fill="#CBCCBE"/>
<path d="M117.348 1.2712L130.061 26.6954L110.503 29.2526L113.031 2.08418C113.238 -0.206953 116.328 -0.783431 117.348 1.2712Z" fill="#CBCCBE"/>
<path d="M70.6185 33.9679C70.6185 33.9679 71.2541 36.5842 76.6499 38.0475C82.0457 39.5109 109.143 39.7474 109.143 39.7474C109.143 39.7474 138.369 33.5983 138.931 33.3618C143.381 31.4107 163.382 22.527 167.285 19.4672C171.675 16.0231 171.232 13.3625 171.232 13.3625L136.699 20.5463L101.885 27.7448L70.6332 33.9826L70.6185 33.9679Z" fill="#B52522"/>
<path d="M116.786 23.3695C125.537 20.9897 134.644 19.8663 143.085 23.2069C148.525 25.365 154.157 29.0604 158.223 35.3869C169.059 52.2674 179.126 50.5084 179.865 61.2249C180.604 71.9415 179.643 98.563 149.663 110.95C119.683 123.322 92.66 104.476 85.7563 93.7294C78.8674 82.9833 77.1674 76.2134 84.4406 65.0533C91.7139 53.8785 83.5536 59.5842 95.3801 37.0868C98.3367 31.4698 105.758 26.385 116.786 23.3695Z" fill="#E9EADA"/>
<path d="M149.649 110.935C179.629 98.563 180.589 71.9415 179.85 61.2101C179.51 56.2583 177.175 53.9672 173.686 51.277L167.566 58.4312C149.19 79.9087 119.402 87.7134 92.8521 78.0019L80.3901 73.4492C78.4978 80.2339 80.7596 85.9396 85.7563 93.7146C92.66 104.461 119.683 123.307 149.663 110.935H149.649Z" fill="#5A6A9C"/>
<path d="M92.8373 78.0167L80.3753 73.464C79.71 75.8438 79.5622 78.0906 79.8578 80.3374L92.8373 85.0822C119.388 94.7789 149.175 86.9743 167.551 65.5115L177.101 54.3515C176.154 53.2725 175.001 52.3117 173.671 51.2917L167.551 58.446C149.175 79.9235 119.388 87.7281 92.8373 78.0167Z" fill="#B52522"/>
<g style="mix-blend-mode:multiply">
<path d="M149.649 110.935C178.579 98.9916 180.486 73.7892 179.924 62.3927C173.981 80.7217 159.598 104.668 124.251 106.456C99.5637 107.698 86.7468 94.838 80.1092 81.6973C80.8927 85.4075 82.8736 89.2063 85.7563 93.6999C92.66 104.446 119.683 123.292 149.663 110.92L149.649 110.935Z" fill="#D3D4C5"/>
</g>
<path d="M142.686 32.4749C148.806 30.6272 150.698 34.5591 154.216 39.5701C157.35 44.0488 159.598 47.2269 159.021 50.9961C157.853 58.5495 120.127 69.7095 101.234 66.9158C96.6958 66.2506 97.3314 60.4267 97.3758 55.6819C97.4201 50.3901 97.5679 42.6298 100.362 41.2699C103.644 39.6735 129.085 36.5694 142.686 32.4749Z" fill="#5B538A"/>
<path d="M131.332 53.7455C142.907 53.7455 153.063 51.3805 158.858 47.8329C158.223 45.2905 156.449 42.7481 154.216 39.5701C150.698 34.5591 148.806 30.6272 142.686 32.4749C129.085 36.5842 103.644 39.6735 100.362 41.2699C99.8149 41.536 99.3715 42.0386 99.0167 42.7333C101.19 48.9563 114.82 53.7455 131.332 53.7455Z" fill="#6A61A1"/>
<path d="M166.442 52.2673C159.745 50.4049 151.349 49.6806 141.932 50.4049C118.013 52.2526 95.9714 62.8509 90.413 74.7056C118.264 70.0495 147.239 64.3143 166.457 52.2821L166.442 52.2673Z" fill="#E9EADA"/>
<path d="M111.863 82.4659C109.232 94.5276 116.875 106.427 128.938 109.058C141 111.689 152.901 104.047 155.532 91.9852C158.164 79.9235 150.521 68.0244 138.458 65.3933C126.395 62.7622 114.495 70.4042 111.863 82.4659Z" fill="#B52522"/>
<path d="M125.124 86.1909C123.468 92.3252 127.075 98.6369 133.21 100.292C139.345 101.948 145.657 98.3412 147.313 92.2069C148.983 86.0726 145.361 79.7609 139.227 78.1054C133.092 76.4351 126.779 80.0565 125.109 86.1909H125.124Z" fill="#ED4A2F"/>
<path d="M112.188 61.6388L121.649 63.6491L136.226 60.4119L143.573 52.9916C143.573 52.9916 128.361 50.937 112.188 61.6388Z" fill="#FEFFEE"/>
<path d="M57.6833 65.9254C57.6833 65.9254 5.05575 76.9968 14.0734 79.9678C23.091 82.9389 59.546 76.4646 59.546 76.4646L71.402 63.2352L57.6685 65.9254H57.6833Z" fill="#E9EADA"/>
</svg>
